<?xml version="1.0" standalone="no"?>
<!DOCTYPE svg PUBLIC "-//W3C//DTD SVG 20010904//EN"
 "http://www.w3.org/TR/2001/REC-SVG-20010904/DTD/svg10.dtd">
<svg version="1.0" xmlns="http://www.w3.org/2000/svg"
 width="800.000000pt" height="800.000000pt" viewBox="0 0 800.000000 800.000000"
 preserveAspectRatio="xMidYMid meet">
<metadata>
Created by potrace 1.14, written by Peter Selinger 2001-2017
</metadata>
<g transform="translate(0.000000,800.000000) scale(0.100000,-0.100000)"
fill="#000000" stroke="none">
<path d="M3530 7508 c-245 -143 -459 -269 -477 -279 -105 -60 -1056 -617
-1095 -641 -27 -17 -49 -39 -52 -53 -4 -14 -7 -414 -7 -889 0 -776 1 -868 16
-896 9 -17 26 -35 38 -39 12 -5 39 -21 60 -35 21 -14 40 -26 41 -26 2 0 116
-67 253 -149 449 -268 1227 -733 1258 -751 124 -72 973 -581 982 -589 16 -15
30 -14 35 1 2 7 3 229 3 493 -1 404 -4 484 -16 508 -10 19 -62 56 -162 115
-81 48 -373 222 -649 387 -275 165 -520 311 -543 325 -361 212 -1094 657
-1092 663 1 5 5 7 9 5 3 -2 14 4 24 13 16 14 175 110 239 144 11 6 119 70 240
142 121 71 285 169 365 215 80 47 161 95 180 107 19 11 51 29 70 40 19 10 73
42 118 70 46 28 85 51 88 51 2 0 28 16 58 35 30 19 57 35 60 35 2 0 40 22 83
48 43 27 98 60 123 74 25 14 79 46 120 70 41 25 83 44 92 42 9 -1 340 -197
735 -435 395 -237 908 -547 1141 -686 l422 -255 0 -1378 c0 -1090 -3 -1380
-12 -1387 -7 -6 -107 -66 -223 -134 -173 -101 -432 -253 -563 -330 -15 -9
-353 -208 -752 -443 -398 -235 -734 -429 -745 -431 -12 -3 -50 13 -98 43 -83
50 -540 326 -585 353 -185 110 -1601 964 -1612 973 -14 10 -15 125 -15 994 0
830 -2 981 -14 977 -33 -13 -808 -490 -827 -509 -47 -48 -45 -18 -45 -986 1
-980 0 -979 48 -997 10 -4 64 -35 122 -70 57 -35 106 -63 108 -63 2 0 19 -11
37 -25 18 -14 36 -25 40 -25 5 0 27 -13 51 -29 23 -16 73 -46 109 -67 80 -46
58 -33 283 -169 101 -61 191 -115 200 -120 10 -6 100 -60 200 -120 101 -61
191 -115 200 -120 20 -11 456 -273 488 -292 11 -7 28 -16 38 -19 9 -3 17 -10
17 -15 0 -5 4 -9 9 -9 9 0 425 -246 518 -306 28 -19 56 -34 62 -34 6 0 11 -4
11 -10 0 -5 4 -10 9 -10 5 0 118 -66 252 -147 134 -80 253 -151 264 -157 11
-6 39 -24 62 -39 44 -28 115 -37 128 -16 4 5 17 15 28 20 12 5 31 15 42 22 34
21 148 89 180 107 17 10 181 107 365 215 184 109 360 213 390 230 30 18 242
142 470 277 229 135 430 254 447 264 17 11 89 53 159 94 70 41 143 85 163 96
147 87 280 165 426 251 94 56 184 109 202 119 17 11 74 44 125 74 51 30 100
58 109 62 9 3 23 22 32 41 16 32 17 183 17 1881 0 1668 -2 1848 -16 1878 -13
28 -77 69 -416 268 -220 129 -417 245 -437 256 -20 12 -93 55 -161 96 -69 41
-130 77 -135 79 -6 2 -71 40 -145 85 -74 44 -268 159 -430 254 -162 95 -311
183 -330 195 -19 12 -152 91 -295 175 -143 84 -309 182 -370 218 -60 36 -123
72 -140 82 -16 9 -92 54 -167 98 -87 52 -147 82 -165 82 -18 -1 -184 -92 -473
-262z"/>
</g>
</svg>
