<?xml version="1.0" encoding="utf-8"?>
<svg width="141px" height="130px" viewBox="0 0 141 130" version="1.1" xmlns:xlink="http://www.w3.org/1999/xlink" xmlns="http://www.w3.org/2000/svg">
  <defs>
    <style>
      .cls-1 {
        fill: #C61A19;
      }
    </style>
  </defs>
  <desc>Created with Lunacy</desc>
  <g id="logo-brainport-white">
    <g id="logo-brainport-black">
      <path class="cls-1" d="M136.491 89.716L136.491 102.356L132.936 102.356L132.936 89.716L128.428 89.716L128.428 86.6462L141 86.6462L141 89.716L136.491 89.716ZM105.75 70.8864C86.2811 70.8864 70.5 55.0186 70.5 35.4436C70.5 15.8701 86.2811 0.0015759 105.75 0.0015759C125.219 0.0015759 141 15.8701 141 35.4436C141 55.0186 125.219 70.8864 105.75 70.8864ZM105.693 21.266C97.9061 21.266 91.5938 27.6129 91.5938 35.4436C91.5938 43.2742 97.9061 49.622 105.693 49.622C113.481 49.622 119.793 43.2742 119.793 35.4436C119.793 27.6129 113.481 21.266 105.693 21.266ZM0 46.7861L21.1541 35.4436L0 24.101L0 0L66.2709 35.4436L0 70.8864L0 46.7861ZM11.201 117.02L3.55688 117.02L3.55688 120.203L9.74461 120.203L9.74461 123.214L3.55688 123.214L3.55688 126.706L11.201 126.706L11.201 129.718L0 129.718L0 114.009L11.201 114.009L11.201 117.02ZM0 102.356L0 86.6462L6.4972 86.6462C10.2758 86.6462 12.3206 88.2497 12.3206 91.039C12.3206 92.6716 11.5928 93.6558 10.333 94.2192C11.9853 94.7542 12.9654 95.8518 12.9654 97.7949C12.9654 100.695 10.8642 102.356 6.91556 102.356L0 102.356ZM6.1321 89.4615L3.55767 89.4615L3.55767 93.0089L6.1321 93.0089C8.14794 93.0089 8.65248 92.3052 8.65248 91.2352C8.65248 90.1368 8.14794 89.4615 6.1321 89.4615ZM9.29648 97.5979C9.29648 96.416 8.73631 95.6548 6.49719 95.6548L3.55767 95.6548L3.55767 99.5402L6.49719 99.5402C8.73631 99.5402 9.29648 98.7798 9.29648 97.5979ZM21.9814 116.316L19.8246 116.316L19.8246 127.409L21.9814 127.409L21.9814 129.718L14.1124 129.718L14.1124 127.409L16.2692 127.409L16.2692 116.316L14.1124 116.316L14.1124 114.009L21.9814 114.009L21.9814 116.316ZM20.1889 102.356L16.6335 102.356L16.6335 86.6462L22.0934 86.6462C26.4902 86.6462 29.1774 88.3072 29.1774 91.9664C29.1774 94.4437 27.8346 95.8518 25.93 96.557L29.9053 102.356L25.8172 102.356L22.5698 97.289L20.1889 97.289L20.1889 102.356ZM22.0652 94.3602C24.5292 94.3602 25.4811 93.6842 25.4811 91.9664C25.4811 90.2786 24.5292 89.5734 22.0652 89.5734L20.1889 89.5734L20.1889 94.3602L22.0652 94.3602ZM35.6151 125.072L35.6151 114.007L39.0325 114.007L39.0325 129.718L34.6922 129.718L28.8664 118.654L28.8664 129.718L25.4513 129.718L25.4513 114.007L29.7917 114.007L35.6151 125.072ZM35.9183 102.356L32.305 102.356L38.0462 86.6462L41.9658 86.6462L47.7069 102.356L43.9824 102.356L43.0023 99.5134L36.8694 99.5134L35.9183 102.356ZM42.1342 96.8092L39.9225 90.1927L37.7383 96.8092L42.1342 96.8092ZM56.9674 121.862C56.9674 126.565 54.4188 129.718 49.0427 129.718L43.47 129.718L43.47 114.009L49.0427 114.009C54.4188 114.009 56.9674 117.162 56.9674 121.862ZM47.0253 116.936L47.0253 126.791L48.9855 126.791C52.4868 126.791 53.2985 124.256 53.2985 121.862C53.2985 119.47 52.4868 116.936 48.9855 116.936L47.0253 116.936ZM58.0666 100.047L58.0666 102.356L50.1983 102.356L50.1983 100.047L52.3552 100.047L52.3552 88.9541L50.1983 88.9541L50.1983 86.6462L58.0666 86.6462L58.0666 88.9541L55.9105 88.9541L55.9105 100.047L58.0666 100.047ZM64.3162 120.144L70.6175 120.144L70.6175 114.009L74.1736 114.009L74.1736 129.718L70.6175 129.718L70.6175 123.243L64.3162 123.243L64.3162 129.718L60.7617 129.718L60.7617 114.009L64.3162 114.009L64.3162 120.144ZM75.1185 86.6462L75.1185 102.356L70.7773 102.356L64.9531 91.2919L64.9531 102.356L61.5365 102.356L61.5365 86.6462L65.8776 86.6462L71.7002 97.7098L71.7002 86.6462L75.1185 86.6462ZM79.556 102.356L79.556 86.6462L85.0166 86.6462C89.4118 86.6462 92.1006 88.3072 92.1006 91.9664C92.1006 95.628 89.4118 97.289 85.0166 97.289L83.1121 97.289L83.1121 102.356L79.556 102.356ZM84.9877 94.3602C87.4524 94.3602 88.4051 93.6842 88.4051 91.9664C88.4051 90.2771 87.4524 89.5734 84.9877 89.5734L83.1121 89.5734L83.1121 94.3602L84.9877 94.3602ZM85.529 113.726C90.5972 113.726 93.0894 116.993 93.0894 121.862C93.0894 126.733 90.5972 130 85.529 130C80.4609 130 77.9679 126.733 77.9679 121.862C77.9679 116.993 80.4609 113.726 85.529 113.726ZM85.529 126.903C88.6644 126.903 89.4212 124.34 89.4212 121.862C89.4212 119.386 88.6644 116.824 85.529 116.824C82.3921 116.824 81.636 119.386 81.636 121.862C81.636 124.34 82.3921 126.903 85.529 126.903ZM102.264 102.638C97.1954 102.638 94.7033 99.3716 94.7033 94.4997C94.7033 89.6309 97.1954 86.3641 102.264 86.3641C107.332 86.3641 109.825 89.6309 109.825 94.4997C109.825 99.3716 107.332 102.638 102.264 102.638ZM102.264 89.4615C99.1282 89.4615 98.3722 92.0239 98.3722 94.4997C98.3722 96.9778 99.1282 99.5402 102.264 99.5402C105.401 99.5402 106.157 96.9778 106.157 94.4997C106.157 92.0239 105.401 89.4615 102.264 89.4615ZM102.134 125.916L105.914 114.009L109.499 114.009L104.095 129.718L100.062 129.718L94.6571 114.009L98.3542 114.009L102.134 125.916ZM123.516 117.02L115.871 117.02L115.871 120.203L122.06 120.203L122.06 123.214L115.871 123.214L115.871 126.706L123.516 126.706L123.516 129.718L112.315 129.718L112.315 114.009L123.516 114.009L123.516 117.02ZM122.544 102.357L119.297 97.2882L116.917 97.2882L116.917 102.357L113.359 102.357L113.359 86.6462L118.82 86.6462C123.217 86.6462 125.904 88.3064 125.904 91.9664C125.904 94.4437 124.56 95.8518 122.657 96.557L126.633 102.357L122.544 102.357ZM118.792 89.5734L116.917 89.5734L116.917 94.3602L118.792 94.3602C121.256 94.3602 122.208 93.6834 122.208 91.9664C122.208 90.2786 121.256 89.5734 118.792 89.5734ZM137.53 125.072L137.53 114.007L140.948 114.007L140.948 129.718L136.607 129.718L130.783 118.654L130.783 129.718L127.366 129.718L127.366 114.007L131.707 114.007L137.53 125.072Z" id="Shape" fill="#FFFFFF" stroke="none" />
    </g>
  </g>
</svg>