<?xml version="1.0" encoding="UTF-8"?>
<svg xmlns="http://www.w3.org/2000/svg" version="1.1" viewBox="0 0 174 81">
  <defs>
    <style>
      .cls-1 {
        fill: none;
        stroke: #0f172a;
        stroke-miterlimit: 10;
        stroke-width: .5px;
      }

      .cls-2 {
        fill: #67a5db;
      }

      .cls-3 {
        fill: #0f172a;
      }
    </style>
  </defs>
  <!-- Generator: Adobe Illustrator 28.7.1, SVG Export Plug-In . SVG Version: 1.2.0 Build 142)  -->
  <g>
    <g id="Laag_1">
      <path class="cls-1" d="M24.6937008.401413l46.8592014,23.417387.075798-23.511284-47.0312004-.042868-.0142994,70.5828557M106.4020004,55.4462013l8.1719971,25.0278969M85.2278976,59.5675011l62.5671005-12.3395004M98.0470963,63.8827019l16.5569,16.6057014,33.2399979-33.2910042-16.6719971-16.6117992M131.2230072,30.6305008l-49.8888092,49.8600006M88.8636017,39.6631012l-7.4925003,40.721199M73.0903015,55.4338989l24.8442001-24.8604984M97.8608017,30.5447998l16.7291946,16.7363014M48.2318001,47.2014999l49.7579994,16.5934982M81.3648987,80.4027023l-16.6084976-49.7130032M81.2829971,47.1769981l-16.5920944-16.5566978M81.3936005,80.5292969l-33.2538986-33.2991982M48.1478996,47.1954002l16.6187019-16.5547009M1.14739,23.8596001l23.4869102,11.8536987M24.593399,47.3077011L1.13306,70.7658997M36.6264992,17.9073009L1.16172,70.6985016M24.6098003,23.8862L71.6164017.399373M24.618.362628l23.4950981,34.0156717M24.6282005,47.2811012h23.5421982M48.1437988,12.1794996v35.1485987M48.1498985,23.8229008l23.5197029.0162983M24.6383991,70.7822037H1.11055l-.11055-46.9838028,23.5646992.0060997"/>
      <path class="cls-2" d="M155.7910004,3.8671899h-79.7910004v19.22821h79.7910004V3.8671899Z"/>
      <path class="cls-3" d="M77.5037994,6.1606398h5.3961029c1.1499939,0,2.2114944.1764102,3.361496,1.0584402.8846054.7056198,1.5923004,1.9404602,1.5923004,3.52812,0,2.1169004-1.5923004,4.4101-4.5999985,4.4101h-3.4498978v5.7331991h-2.2115021V6.1606398h-.088501ZM79.8038025,13.0404997h3.361496c1.6807022,0,2.4768982-1.2348995,2.4768982-2.3814993,0-.9702406-.3538971-1.5876608-.9730988-1.9404707-.5307999-.3528194-.9730988-.44102-1.5923004-.44102h-3.272995v4.76299Z"/>
      <path class="cls-3" d="M89.9766998,8.6299696c.7077026-1.3230395,2.3000031-2.6460795,4.5999985-2.6460795,2.2999039,0,3.8922043,1.4112401,4.5998993,2.6460795.4422989.8820305.6192017,1.32304.6192017,4.8511305,0,3.5280991-.1769028,3.9692001-.6192017,4.8512001-.707695,1.323-2.2999954,2.6460991-4.5998993,2.6460991-2.2999954,0-3.8922958-1.4112988-4.5999985-2.6460991-.4422989-.882-.6192017-1.323101-.6192017-4.8512001,0-3.5280905.1769028-3.9691.6192017-4.8511305ZM92.3651962,17.7148991c.4423065.6174011,1.2384033,1.0584011,2.2999039,1.0584011,1.0615997,0,1.8576965-.5291996,2.3000031-1.0584011.619194-.7056999.707695-1.1466999.707695-4.1455994s-.177002-3.4398994-.707695-4.2337093c-.4423065-.6174202-1.2384033-1.0584307-2.3000031-1.0584307-1.0615005,0-1.8575974.5292206-2.2999039,1.0584307-.6192932.7056093-.707695,1.1466093-.707695,4.2337093,0,2.9988995.0884018,3.3516998.707695,4.1455994Z"/>
      <path class="cls-3" d="M102.538002,6.1606398h5.75c1.237999,0,2.211998.2646103,3.0079956.9702301.7960052.7056303,1.503006,1.8522606,1.503006,3.1753302,0,1.9404001-1.0610046,3.4399004-2.8300018,4.0572996l3.4499969,6.5269995h-2.6539993l-3.0960007-6.2623987h-2.8310013v6.2623987h-2.2109985V6.1606398h-.0889969ZM104.8379974,12.5993996h3.3619995c1.6800003,0,2.4760056-1.0583992,2.4760056-2.3813992,0-.7938499-.2649994-1.3230705-.7070007-1.6758804-.4430008-.3528099-.8850021-.44102-1.6809998-.44102h-3.538002v4.4982996h.0879974Z"/>
      <path class="cls-3" d="M117.3990021,8.1011h-4.0690002v-1.9404602h10.3499985v1.9404602h-4.0690002v12.7893991h-2.211998v-12.7893991Z"/>
      <path class="cls-3" d="M130.4029999,8.6299696c.7079926-1.3230395,2.3000031-2.6460795,4.6000061-2.6460795,2.2999878,0,3.8919983,1.4112401,4.5999908,2.6460795.4420013.8820305.6190033,1.32304.6190033,4.8511305,0,3.5280991-.177002,3.9692001-.6190033,4.8512001-.7079926,1.323-2.3000031,2.6460991-4.5999908,2.6460991-2.3000031,0-3.8920135-1.4112988-4.6000061-2.6460991-.4420013-.882-.6190033-1.323101-.6190033-4.8512001,0-3.5280905.177002-3.9691.6190033-4.8511305ZM132.7910004,17.7148991c.4429932.6174011,1.2389984,1.0584011,2.3000031,1.0584011,1.0619965,0,1.8580017-.5291996,2.3000031-1.0584011.6199951-.7056999.7079926-1.1466999.7079926-4.1455994s-.177002-3.4398994-.7079926-4.2337093c-.4420013-.6174202-1.2380066-1.0584307-2.3000031-1.0584307-1.0610046,0-1.8570099.5292206-2.3000031,1.0584307-.6190033.7056093-.7070007,1.1466093-.7070007,4.2337093-.0890045,2.9988995.0879974,3.3516998.7070007,4.1455994Z"/>
      <path class="cls-3" d="M142.9640045,6.1606398h9.4659882v2.1168699h-7.2539978v4.3218899h6.1920013v2.0287008h-6.1920013v6.2623987h-2.2119904V6.1606398Z"/>
      <path class="cls-3" d="M155.7910004,22.4780006h-79.7910004v1.0585003h79.7910004v-1.0585003Z"/>
      <path class="cls-2" d="M173.0410004,25.1240005h-97.0410004v17.905201h97.0410004v-17.905201Z"/>
      <path class="cls-3" d="M77.5037994,26.6235008h2.1231003l4.2461014,9.6140976,4.1576004-9.6140976h2.1230011v14.7299004h-2.2115021v-9.1730995h-.0884018l-3.0960999,7.0561981h-1.8576965l-3.0960999-7.0561981v9.1730995h-2.3000031v-14.7299004Z"/>
      <path class="cls-3" d="M93.4266968,29.093399c.7077026-1.3230991,2.2999039-2.6460991,4.5999069-2.6460991,2.3003998,0,3.892395,1.4111996,4.6003952,2.6460991.4420013.8820019.6190033,1.3230019.6190033,4.8511009s-.177002,3.969101-.6190033,4.8512001c-.7080002,1.322998-2.2999954,2.6460991-4.6003952,2.6460991-2.3000031,0-3.8922043-1.4113007-4.5999069-2.6460991-.4422989-.8820992-.6192932-1.323101-.6192932-4.8512001s.1769943-3.969099.6192932-4.8511009ZM95.8151016,38.1781998c.4422989.6175003,1.2383957,1.0584984,2.2999954,1.0584984,1.0615005,0,1.857605-.5291977,2.2999039-1.0584984.6189957-.7056007.7080002-1.1465988.7080002-4.1455002,0-2.9988995-.177002-3.4398994-.7080002-4.2336998-.4422989-.6173992-1.2384033-1.0585003-2.2999039-1.0585003-1.0615997,0-1.8576965.5293007-2.2999954,1.0585003-.6192017.7056007-.7077026,1.1466007-.7077026,4.2336998-.0884018,2.9989014.088501,3.4398994.7077026,4.1455002Z"/>
      <path class="cls-3" d="M105.987999,26.6235008h9.465004v2.1168995h-7.253006v4.2336979h6.1920013v1.9405022h-6.1920013v4.3218994h7.253006v2.1169014h-9.465004v-14.7299004Z"/>
      <path class="cls-3" d="M117.5759964,26.6235008h5.75c1.239006,0,2.2120056.2645988,3.0080032.9702988.7959976.7056007,1.5039978,1.8521996,1.5039978,3.1753006,0,1.9403992-1.0619965,3.4398994-2.8309937,4.0573006l3.4499969,6.5270004h-2.6539993l-3.0960007-6.3506012h-2.8310013v6.3506012h-2.2109985v-14.7299004h-.0890045ZM119.788002,33.0623016h3.3610001c1.6809998,0,2.4769974-1.058403,2.4769974-2.3814011,0-.7939014-.2649994-1.323101-.7070007-1.6759014-.4430008-.3527985-.8850021-.441-1.6809998-.441h-3.5390015v4.4983025h.0890045Z"/>
      <path class="cls-3" d="M130.2259979,26.6235008h5.2190094c1.9459991,0,3.5389862.8820992,4.5119934,2.4696999.7070007,1.2348995.7960052,1.7640991.7960052,4.9393997,0,3.3516998-.177002,3.8809013-.7960052,4.9393005-.8849945,1.4113007-2.3890076,2.4696999-4.6000061,2.4696999h-5.1309967v-14.8181ZM132.526001,39.2364998h2.6539917c1.2380066,0,2.1230011-.4409981,2.7420044-1.322998.5310059-.7056007.5310059-1.1466026.5310059-3.8809013,0-2.646101-.0890045-3.2635002-.7080078-4.1456013-.7070007-.9701996-1.4149933-1.2347984-2.6539917-1.2347984h-2.6529999v10.5842991h.0879974Z"/>
      <path class="cls-3" d="M145.5299988,26.6235008h-2.2120056v14.7299004h2.2120056v-14.7299004Z"/>
      <path class="cls-3" d="M148.9799957,38.2663002c.3540039.5292015,1.0610046.9701996,1.9459991.9701996,1.1500092,0,2.5650024-.7056007,2.5650024-2.7341995v-9.8787994h2.2120056v10.1433983c0,2.9107018-2.3890076,4.6747017-4.7770081,4.6747017-1.6809998,0-3.0079956-.7938004-3.8919983-1.9403992l1.9459991-1.2349014Z"/>
      <path class="cls-3" d="M158.7100067,26.6235008h2.2999878v7.5854988l6.1040039-7.5854988h2.654007l-4.6890106,5.8213997,5.2200012,8.9085007h-2.6539917l-4.0690002-7.2326012-2.5660095,2.7342987v4.4983025h-2.2999878v-14.7299004Z"/>
      <path class="cls-3" d="M173.0410004,42.9408989h-97.0410004v1.0585022h97.0410004v-1.0585022Z"/>
    </g>
  </g>
</svg>