<?xml version="1.0" encoding="UTF-8" standalone="no"?>
<!-- Created with Inkscape (http://www.inkscape.org/) -->
<!DOCTYPE svg PUBLIC "-//W3C//DTD SVG 1.1//EN" "http://www.w3.org/Graphics/SVG/1.1/DTD/svg11.dtd">
<svg
   xmlns:svg="http://www.w3.org/2000/svg"
   xmlns="http://www.w3.org/2000/svg"
   version="1.1"
   width="400"
   height="250"
   id="svg2816"
   xml:space="preserve"><defs
     id="defs2820" /><g
     transform="matrix(1.2878768,0,0,-1.2878768,-6.0613044,331.06026)"
     id="g2826"><g
       transform="matrix(0.15771234,0,0,0.15771234,-309.41185,-503.88221)"
       id="g2828"><path
         d="m 2112.99,3669.77 -22.11,-30.24 -49.93,0 130.96,175.73 72.96,0 -22.24,-175.73 -48.95,0 3.87,30.24 -64.56,0 z m 80.97,110.35 -0.48,0 -55.19,-76.16 44.64,0 11.03,76.16"
         id="path2832"
         style="fill:black;fill-opacity:1;fill-rule:evenodd;stroke:none" /><path
         d="m 2406.07,3706.07 -2.25,-5.15 c -8.42,-19.21 -16.25,-36.55 -38.43,-49.91 -22.06,-13.12 -41.89,-12.88 -62.76,-12.88 -48.97,0 -83.7,2.34 -55.58,66.54 l 19.9,45.46 c 25.45,58.1 61.07,66.53 113.87,66.53 49.45,0 70.33,-4.92 48.2,-57.63 l -2.97,-6.8 -49.44,0 2.97,6.8 c 5.2,15.7 -5.57,16.87 -21.89,16.87 -27.37,0 -33.6,-8.21 -44.58,-33.27 l -12,-27.42 c -11.5,-26.24 -14.7,-36.32 14.1,-36.32 19.92,0 30.13,1.42 39.16,22.03 l 2.26,5.15 49.44,0"
         id="path2834"
         style="fill:black;fill-opacity:1;fill-rule:evenodd;stroke:none" /><path
         d="m 2571.13,3706.07 -2.25,-5.15 c -8.42,-19.21 -16.25,-36.55 -38.43,-49.91 -22.06,-13.12 -41.87,-12.88 -62.76,-12.88 -48.96,0 -83.7,2.34 -55.58,66.54 l 19.91,45.46 c 25.44,58.1 61.05,66.53 113.86,66.53 49.44,0 70.33,-4.92 48.21,-57.63 l -2.98,-6.8 -49.44,0 2.96,6.8 c 5.21,15.7 -5.56,16.87 -21.89,16.87 -27.35,0 -33.59,-8.21 -44.57,-33.27 l -12,-27.42 c -11.5,-26.24 -14.71,-36.32 14.09,-36.32 19.92,0 30.14,1.42 39.17,22.03 l 2.26,5.15 49.44,0"
         id="path2836"
         style="fill:black;fill-opacity:1;fill-rule:evenodd;stroke:none" /><path
         d="m 2649.68,3744.74 76.81,0 -14.27,-32.57 -76.81,0 -14.97,-34.21 83.52,0 -16.83,-38.43 -131.52,0 76.95,175.73 129.85,0 -16.83,-38.42 -81.84,0 -14.06,-32.1"
         id="path2838"
         style="fill:black;fill-opacity:1;fill-rule:evenodd;stroke:none" /><path
         d="m 2773.13,3680.31 75.12,0 -17.84,-40.78 -123.14,0 76.96,175.73 48.01,0 -59.11,-134.95"
         id="path2840"
         style="fill:black;fill-opacity:1;fill-rule:evenodd;stroke:none" /><path
         d="m 2903.91,3680.31 75.13,0 -17.86,-40.78 -123.12,0 76.95,175.73 48,0 -59.1,-134.95"
         id="path2842"
         style="fill:black;fill-opacity:1;fill-rule:evenodd;stroke:none" /><path
         d="m 3175.22,3760.66 c 6.85,17.82 -8.86,17.58 -23.26,17.58 -34.56,0 -40.04,-10.31 -52.93,-38.66 l -12.51,-28.59 c -13.66,-31.16 -4.06,-34.44 20.91,-34.44 24.48,0 33.32,5.39 43.99,29.76 l -33.12,0 14.25,32.57 81.86,0 -13.45,-30.7 c -25.95,-59.28 -46.04,-70.05 -110.37,-70.05 -56.63,0 -81.33,9.37 -56.39,66.31 l 19.9,45.45 c 25.44,58.1 61.88,66.77 114.69,66.77 46.55,0 79.57,-0.23 55.15,-56 l -48.72,0"
         id="path2844"
         style="fill:black;fill-opacity:1;fill-rule:evenodd;stroke:none" /><path
         d="m 3260.99,3815.26 92.65,0 c 41.21,-0.71 57.81,-9.37 38.63,-53.18 -12.82,-29.29 -20.31,-46.4 -57.78,-54.13 l -0.83,-1.88 c 19.38,-0.69 27.49,-11.24 18.76,-31.15 l -15.49,-35.39 -48,0 10.77,24.6 c 6.23,13.12 4.37,22.03 -10.04,22.03 l -37.2,0 -20.42,-46.63 -48,0 76.95,175.73 z m 46.52,-88.33 c 20.65,0 23.21,7.5 31.93,27.42 6.88,15.69 4.75,20.14 -11.09,20.14 l -37.2,0 -20.84,-47.56 37.2,0"
         id="path2846"
         style="fill:black;fill-opacity:1;fill-rule:evenodd;stroke:none" /><path
         d="m 3374.34,3702.56 21.75,49.67 c 23.7,54.13 62.78,64.43 111.5,64.43 48.73,0 78.78,-10.3 55.07,-64.43 l -21.75,-49.67 c -23.71,-54.12 -62.78,-64.43 -111.51,-64.43 -48.72,0 -78.76,10.31 -55.06,64.43 z m 119.39,5.15 17.34,39.6 c 11.39,26 3.63,28.59 -21.34,28.59 -24.95,0 -34.24,-2.59 -46.35,-28.59 l -17.34,-39.6 c -10.77,-26.24 -3.74,-28.82 21.22,-28.82 24.96,0 34.98,2.58 46.47,28.82"
         id="path2848"
         style="fill:black;fill-opacity:1;fill-rule:evenodd;stroke:none" /><path
         d="m 3758.69,3815.26 -51.31,-117.15 c -20.52,-46.86 -48.84,-59.98 -101.65,-59.98 -72,0 -71.87,17.81 -53.41,59.98 l 51.31,117.15 48,0 -50.9,-116.21 c -8.71,-19.92 2.71,-20.16 22.86,-20.16 20.41,0 28.09,1.65 37.12,22.27 l 49.97,114.1 48.01,0"
         id="path2850"
         style="fill:black;fill-opacity:1;fill-rule:evenodd;stroke:none" /><path
         d="m 3700.9,3639.53 76.96,175.73 90.49,0 c 44.64,0 53.34,-18.51 33.22,-64.44 -21.64,-49.44 -40.32,-66.29 -90.48,-66.29 l -42.48,0 -19.71,-45 -48,0 z m 118.44,85.76 c 19.27,0.71 22.84,2.8 32.79,25.53 7.89,18.05 7.48,23.67 -11.23,23.67 l -32.89,0 -21.56,-49.2 32.89,0"
         id="path2852"
         style="fill:black;fill-opacity:1;fill-rule:evenodd;stroke:none" /><path
         d="m 379.875,475.125 c -0.81625,0.33375 -2.22875,0.6925 -3.875,1.0625 -1.60875,0.16125 -3.47625,0.45875 -5.09375,0.5625 -0.445,2.6975 -1.13,4.4625 -2.15625,7.09375 -1.26125,3.6725 -3.88375,10.8725 -6.90625,19.03125 -1.9925,5.38 -4.14875,11.1675 -6.21875,16.65625 -1.815,4.81625 -3.555,9.40875 -5.03125,13.25 0.0113,0.009 0.0188,0.02 0.0312,0.0312 0.5075,0.445 1.87125,1.65875 4.125,3.4375 1.145,-3.665 2.78125,-8.635 5,-15.15625 0.14625,-0.43 0.29125,-0.85125 0.4375,-1.28125 2.0575,-6.02125 4.0875,-11.87125 5.96875,-17.25 2.35125,-6.72 4.48625,-12.7225 6.15625,-17.53125 1.5,5.21125 3.2625,11.30875 5.03125,17.4375 3.56375,0.13625 7.23,0.455 10.875,0.9375 -3.71,-12.105 -6.79125,-22.77625 -8.34375,-28.28125 z m 16.78125,54.6875 -10.34375,3.8125 c 1.6225,5.26125 3.165,10.16125 3.75,12.25 0.66125,2.29875 0.095,2.9275 -7.3125,3.4375 l 0.0937,3.375 c 5.34,-0.10125 9.95625,-0.33875 15.71875,-0.34375 5.3225,-0.0113 10.6525,0.25125 13.34375,0.34375 l 0,-3.375 -4.34375,-0.375 c -2.805,-0.275 -4.12125,-1.05875 -5.1875,-3.4375 -1.14375,-2.55125 -2.8725,-7.1775 -5.71875,-15.6875 z m -48.75,9.78125 c -0.24,0.60125 -0.4325,1.15 -0.625,1.625 -2.8875,6.7625 -4.85375,7.71 -11.1875,8.09375 l -0.0312,3.375 c 4.75,0 10.0575,-0.34375 13.53125,-0.34375 5.39,0 8.99625,0.34375 12.8125,0.34375 l 0.0312,-3.375 c -9.53375,-0.455 -10.72,-1.74 -9.46875,-6.90625 -1.8625,-0.99375 -3.5575,-1.945 -5.0625,-2.8125 z"
         transform="matrix(8,0,0,-8,0,8420)"
         id="path2854"
         style="fill:#0866a3;fill-opacity:1;fill-rule:evenodd;stroke:none" /><path
         d="m 373.65625,502.375 c -2.56,0 -5.0775,0.0625 -7.5,0.1875 -1.88125,5.37875 -3.91125,11.22875 -5.96875,17.25 10.7525,1.19625 22.1,6.31125 22.96875,15 l 42.78125,-15.78125 c 0.2,-6.18125 -18.46,-13.075 -37.71875,-15.625 -3.645,-0.4825 -7.31125,-0.80125 -10.875,-0.9375 -1.25125,-0.0475 -2.4675,-0.0937 -3.6875,-0.0937 z m -11.8125,0.5 c -17.20375,1.46375 -29.6675,6.28625 -30.75,14.40625 -1,7.5075 3.02375,11.77625 10.28125,18.03125 1.21625,1.04875 3.45875,2.50625 6.53125,4.28125 1.505,0.8675 3.2,1.81875 5.0625,2.8125 17.00625,9.055 47.62375,22.49125 69.21875,27.1875 3.0025,0.75 4.75375,0.50125 0.5,-0.75 -37.6775,-10.9075 -59.34,-25.8075 -67.9375,-32.59375 -2.25375,-1.77875 -3.6175,-2.9925 -4.125,-3.4375 -0.0125,-0.0113 -0.02,-0.0225 -0.0312,-0.0312 -4.11625,-3.6525 -7.8925,-13.25 4.78125,-13.25 0.08,0 0.1725,-10e-4 0.25,0 2.07,-5.48875 4.22625,-11.27625 6.21875,-16.65625 z"
         transform="matrix(8,0,0,-8,0,8420)"
         id="path2860"
         style="fill:#369929;fill-opacity:1;fill-rule:evenodd;stroke:none" /><path
         d="m 2470.9,4004.66 7.98,3.45 7.35,-17.04 64.01,27.64 3.56,-8.25 -64,-27.64 7.36,-17.03 -7.97,-3.45 -18.29,42.32"
         id="path2864"
         style="fill:black;fill-opacity:1;fill-rule:evenodd;stroke:none" /><path
         d="m 2535.33,4057.36 -75.56,-21 -2.4,8.67 32.65,9.06 -6.62,23.82 -32.65,-9.08 -2.4,8.66 75.54,21.01 2.41,-8.67 -34.54,-9.6 6.63,-23.8 34.52,9.6 2.42,-8.67"
         id="path2866"
         style="fill:black;fill-opacity:1;fill-rule:evenodd;stroke:none" /><path
         d="m 2518.26,4127.29 -77.67,-10.54 -4.86,36.03 8.62,1.18 3.66,-27.14 24.95,3.38 -3.41,25.19 8.61,1.18 3.4,-25.19 26.89,3.65 -3.75,27.72 8.62,1.16 4.94,-36.62"
         id="path2868"
         style="fill:black;fill-opacity:1;fill-rule:evenodd;stroke:none" /><path
         d="m 2511.56,4225.96 -78.2,5.51 1.46,20.87 c 0.66,9.46 5.28,19.32 23.7,18.04 17.76,-1.26 20.56,-14 20.06,-21.22 l -0.83,-11.8 34.45,-2.42 -0.64,-8.98 z m -42.48,12.01 0.7,9.85 c 0.25,3.7 -0.22,12.57 -12.45,13.42 -11.92,0.84 -13.67,-7.08 -13.81,-9.03 l -0.87,-12.38 26.43,-1.86"
         id="path2870"
         style="fill:black;fill-opacity:1;fill-rule:evenodd;stroke:none" /><path
         d="m 2484.69,4307.68 35.29,-7.38 -1.84,-8.8 -76.75,16.05 5,23.8 c 2.56,12.24 13.04,14.55 22.6,12.56 9.05,-1.89 15.01,-7.83 14.89,-16.3 l 0.22,-0.04 c 3.04,7.65 6.63,9.88 22.13,7.14 3.32,-0.59 15.53,-2.14 20.6,-1.8 l -1.94,-9.18 c -5.83,-1.38 -15.7,1.29 -26.06,2.65 -9.49,1.28 -11.35,-5.42 -11.97,-8.38 l -2.17,-10.32 z m -8.49,1.78 2.76,13.2 c 1.33,6.31 -4.1,10.63 -10.79,12.03 -5.53,1.16 -12.21,-0.04 -13.63,-6.83 l -2.79,-13.29 24.45,-5.11"
         id="path2872"
         style="fill:black;fill-opacity:1;fill-rule:evenodd;stroke:none" /><path
         d="m 2534,4357.13 -73.98,25.95 11.99,34.3 8.19,-2.88 -9.02,-25.82 23.78,-8.33 8.38,23.97 8.2,-2.87 -8.39,-23.98 25.62,-8.97 9.23,26.36 8.2,-2.88 -12.2,-34.85"
         id="path2874"
         style="fill:black;fill-opacity:1;fill-rule:evenodd;stroke:none" /><path
         d="m 2559.3,4422.31 -4,-7.38 -69.04,37.12 6.92,12.82 66.38,-15.52 0.09,0.17 -49.43,46.98 7.05,13.07 69.05,-37.12 -4.27,-7.92 -61.39,33.02 -0.1,-0.17 52.03,-50.39 -4.03,-7.47 -70.57,15.99 -0.09,-0.17 61.4,-33.03"
         id="path2876"
         style="fill:black;fill-opacity:1;fill-rule:evenodd;stroke:none" /><path
         d="m 2609.14,4504.02 -5.29,-7.27 -63.36,46.21 5.3,7.26 63.35,-46.2"
         id="path2878"
         style="fill:black;fill-opacity:1;fill-rule:evenodd;stroke:none" /><path
         d="m 2627.95,4528.15 -58.12,52.62 24.37,26.98 6.44,-5.83 -18.35,-20.3 18.69,-16.91 17.04,18.85 6.44,-5.84 -17.04,-18.85 20.13,-18.22 18.74,20.73 6.44,-5.83 -24.78,-27.4"
         id="path2880"
         style="fill:black;fill-opacity:1;fill-rule:evenodd;stroke:none" /><path
         d="m 2654.12,4606 23.31,-27.49 -6.86,-5.81 -50.69,59.78 18.56,15.71 c 9.53,8.08 19.2,3.47 25.53,-3.98 5.97,-7.03 7.03,-15.39 1.74,-22 l 0.14,-0.16 c 7.11,4.17 11.3,3.74 21.86,-7.96 2.26,-2.5 10.93,-11.22 15.14,-14.06 l -7.16,-6.07 c -5.44,2.5 -11.61,10.68 -18.94,18.11 -6.7,6.85 -12.27,2.7 -14.59,0.73 l -8.04,-6.8 z m -5.62,6.62 10.28,8.71 c 4.93,4.17 3.31,10.9 -1.11,16.12 -3.67,4.3 -9.67,7.47 -14.97,2.98 l -10.35,-8.77 16.15,-19.04"
         id="path2882"
         style="fill:black;fill-opacity:1;fill-rule:evenodd;stroke:none" /><path
         d="m 2753.68,4634.1 -37.5,68.86 31.93,17.39 4.16,-7.63 -24.04,-13.09 12.05,-22.13 22.33,12.15 4.15,-7.63 -22.32,-12.15 12.97,-23.84 24.57,13.36 4.15,-7.62 -32.45,-17.67"
         id="path2884"
         style="fill:black;fill-opacity:1;fill-rule:evenodd;stroke:none" /><path
         d="m 2780.5,4735.5 8.41,3.2 17.89,-46.88 c 6.11,-16.03 12.05,-18.43 19.99,-15.39 7.95,3.03 10.78,8.76 4.66,24.78 l -17.89,46.88 8.4,3.21 17.74,-46.48 c 7.74,-20.29 4.05,-30.88 -9.93,-36.2 -13.96,-5.32 -23.77,0.11 -31.53,20.41 l -17.74,46.47"
         id="path2886"
         style="fill:black;fill-opacity:1;fill-rule:evenodd;stroke:none" /><path
         d="m 2877.89,4723.21 7.93,-35.16 -8.78,-1.99 -17.24,76.46 23.75,5.39 c 12.2,2.76 18.65,-5.8 20.79,-15.34 2.04,-9 -0.89,-16.89 -8.65,-20.32 l 0.05,-0.21 c 8.22,0.42 11.76,-1.91 15.7,-17.15 0.83,-3.27 4.48,-15.01 6.9,-19.48 l -9.16,-2.07 c -3.68,4.73 -5.34,14.82 -8.4,24.81 -2.76,9.17 -9.64,8.06 -12.59,7.39 l -10.3,-2.33 z m -1.91,8.48 13.16,2.98 c 6.29,1.42 7.98,8.14 6.48,14.82 -1.24,5.51 -5.1,11.09 -11.87,9.56 l -13.26,-3 5.49,-24.36"
         id="path2888"
         style="fill:black;fill-opacity:1;fill-rule:evenodd;stroke:none" /><path
         d="m 2940.51,4727.63 -2.05,25.65 c -1.23,15.58 5.18,26.1 20.08,27.29 14.9,1.19 22.89,-8.2 24.14,-23.78 l 2.05,-25.63 c 1.73,-21.65 -4.8,-30.77 -19.7,-31.95 -14.9,-1.19 -22.79,6.79 -24.52,28.42 z m 35.11,2.36 -2.11,26.4 c -1.3,16.33 -11.48,16.07 -14.31,15.84 -2.82,-0.21 -12.91,-1.56 -11.61,-17.9 l 2.11,-26.4 c 1.37,-17.09 6.19,-21.07 14.66,-20.39 8.48,0.67 12.62,5.35 11.26,22.45"
         id="path2890"
         style="fill:black;fill-opacity:1;fill-rule:evenodd;stroke:none" /><path
         d="m 3016.62,4702.57 4.86,78.2 20.88,-1.3 c 9.45,-0.59 19.35,-5.13 18.2,-23.54 -1.1,-17.77 -13.81,-20.67 -21.02,-20.22 l -11.81,0.74 -2.13,-34.45 -8.98,0.57 z m 11.65,42.54 9.85,-0.61 c 3.7,-0.23 12.56,0.3 13.31,12.54 0.75,11.92 -7.18,13.6 -9.14,13.73 l -12.38,0.77 -1.64,-26.43"
         id="path2892"
         style="fill:black;fill-opacity:1;fill-rule:evenodd;stroke:none" /><path
         d="m 3082.48,4696.35 15.04,76.93 35.66,-6.99 -1.66,-8.53 -26.84,5.27 -4.83,-24.73 24.93,-4.89 -1.67,-8.52 -24.93,4.89 -5.22,-26.64 27.43,-5.37 -1.66,-8.53 -36.25,7.11"
         id="path2894"
         style="fill:black;fill-opacity:1;fill-rule:evenodd;stroke:none" /><path
         d="m 3183.19,4751.93 10.83,-3.7 -3.59,-81.62 -9.52,3.26 1.22,19.32 -25.8,8.83 -11.02,-15.96 -8.59,2.92 46.47,66.95 z m 2.2,-10.51 -0.18,0.07 -23.94,-35.98 21.36,-7.31 2.76,43.22"
         id="path2896"
         style="fill:black;fill-opacity:1;fill-rule:evenodd;stroke:none" /><path
         d="m 3290.09,4704.6 -36.22,-69.51 -10.91,5.7 6.72,73.15 -0.18,0.09 -31.4,-60.26 -7.1,3.7 36.22,69.51 11.25,-5.87 -6.66,-72.2 0.18,-0.09 30.99,59.48 7.11,-3.7"
         id="path2898"
         style="fill:black;fill-opacity:1;fill-rule:evenodd;stroke:none" /><path
         d="m 3367.88,4621.84 c 2.94,3.34 5.58,6.93 5.77,10.02 0.19,3.11 -2.47,6.48 -3.88,7.68 -5.67,4.78 -11.14,2.87 -12.06,2.23 -0.78,-0.48 -3.38,-0.84 -12.06,-11.12 l -13.51,-16.01 c -12.37,-14.68 -9.52,-20.07 -4.22,-24.54 2.1,-1.77 9.14,-6.28 19.08,5.34 l 7.1,-5.98 c -15.66,-19.16 -27.68,-9.02 -31.19,-6.07 -6.72,5.68 -16.61,14.87 2.99,38.09 l 14.27,16.91 c 14.27,16.92 25.05,16.06 35.66,7.11 10.68,-9 9.6,-18.6 -0.87,-29.65 l -7.08,5.99"
         id="path2900"
         style="fill:black;fill-opacity:1;fill-rule:evenodd;stroke:none" /><path
         d="m 3436.47,4583.36 6.13,-6.72 -48.9,-18.41 -22.11,-20.08 -6.05,6.64 22.11,20.1 23.17,46.64 6.77,-7.44 -18.78,-35.67 37.66,14.94"
         id="path2902"
         style="fill:black;fill-opacity:1;fill-rule:evenodd;stroke:none" /><path
         d="m 3462.27,4513.46 c 3.71,2.45 7.21,5.23 8.21,8.17 1,2.96 -0.68,6.9 -1.75,8.42 -4.22,6.11 -10,5.66 -11.06,5.29 -0.88,-0.26 -3.48,0.08 -14.55,-7.6 l -17.23,-11.93 c -15.81,-10.95 -14.46,-16.9 -10.5,-22.6 1.55,-2.25 7.16,-8.45 19.82,0.2 l 5.28,-7.62 c -20.13,-14.43 -29.08,-1.51 -31.7,2.26 -5.01,7.22 -12.15,18.67 12.85,35.98 l 18.2,12.62 c 18.22,12.62 28.4,8.99 36.31,-2.41 7.96,-11.48 4.4,-20.47 -8.6,-28.4 l -5.28,7.62"
         id="path2904"
         style="fill:black;fill-opacity:1;fill-rule:evenodd;stroke:none" /><path
         d="m 3434.49,4450.03 69.49,36.31 4.17,-7.97 -61.8,-32.29 11.98,-22.95 -7.7,-4.02 -16.14,30.92"
         id="path2906"
         style="fill:black;fill-opacity:1;fill-rule:evenodd;stroke:none" /><path
         d="m 3459.32,4399.06 73.35,27.79 12.86,-34.02 -8.14,-3.08 -9.67,25.61 -23.56,-8.93 8.98,-23.78 -8.14,-3.08 -8.98,23.77 -25.39,-9.62 9.87,-26.15 -8.13,-3.07 -13.05,34.56"
         id="path2908"
         style="fill:black;fill-opacity:1;fill-rule:evenodd;stroke:none" /><path
         d="m 3549.89,4280.92 c 9.14,1.38 13.56,5.53 12.18,14.52 -0.42,2.81 -2.49,12.77 -18.69,10.29 l -26.19,-3.99 c -16.95,-2.58 -20.57,-7.69 -19.28,-16.1 0.97,-6.38 3.55,-10.33 5.32,-11.94 l 23.19,3.53 -1.96,12.86 8.58,1.31 3.32,-21.74 -37.67,-5.75 c -4.31,5.18 -7.68,11.48 -9.05,20.47 -2.25,14.78 5.13,23.23 26.59,26.5 l 25.43,3.89 c 15.46,2.36 26.42,-3.28 28.68,-18.07 2.3,-15.07 -2.73,-23.16 -19.02,-25.05 l -1.43,9.27"
         id="path2910"
         style="fill:black;fill-opacity:1;fill-rule:evenodd;stroke:none" /><path
         d="m 3532.9,4225.28 -36.06,-0.29 -0.07,8.98 78.39,0.64 0.23,-24.31 c 0.11,-12.5 -9.62,-16.98 -19.39,-17.06 -9.23,-0.07 -16.33,4.46 -18.04,12.74 l -0.21,0 c -1.34,-8.12 -4.36,-11.07 -20.09,-11.69 -3.37,-0.13 -15.64,-1.2 -20.51,-2.6 l -0.08,9.37 c 5.41,2.59 15.61,2.08 26.03,2.95 9.55,0.76 9.92,7.7 9.9,10.72 l -0.1,10.55 z m 8.69,0.08 0.12,-13.48 c 0.06,-6.45 6.28,-9.52 13.11,-9.47 5.64,0.05 11.92,2.64 11.86,9.57 l -0.13,13.58 -24.96,-0.2"
         id="path2912"
         style="fill:black;fill-opacity:1;fill-rule:evenodd;stroke:none" /><path
         d="m 3523.96,4163.15 25.49,-3.4 c 15.5,-2.07 24.43,-10.55 22.46,-25.37 -1.98,-14.83 -12.84,-20.69 -28.33,-18.62 l -25.49,3.4 c -21.52,2.88 -29.06,11.17 -27.08,25.99 1.98,14.83 11.44,20.87 32.95,18 z m -5.09,-34.83 26.24,-3.49 c 16.25,-2.18 18.13,7.83 18.52,10.64 0.35,2.82 1.17,12.96 -15.07,15.13 l -26.24,3.5 c -17,2.27 -21.9,-1.62 -23.02,-10.04 -1.12,-8.44 2.57,-13.46 19.57,-15.74"
         id="path2914"
         style="fill:black;fill-opacity:1;fill-rule:evenodd;stroke:none" /><path
         d="m 3559.31,4073.95 -2.47,-8.65 -48.23,13.79 c -16.48,4.71 -21.96,1.4 -24.3,-6.79 -2.34,-8.17 0.54,-13.87 17.03,-18.59 l 48.23,-13.78 -2.48,-8.65 -47.81,13.66 c -20.87,5.97 -27.12,15.28 -23,29.67 4.11,14.38 14.35,18.97 35.23,13 l 47.8,-13.66"
         id="path2916"
         style="fill:black;fill-opacity:1;fill-rule:evenodd;stroke:none" /><path
         d="m 3461.31,4025.11 71.62,-31.9 -8.54,-19.11 c -3.87,-8.67 -11.59,-16.35 -28.46,-8.84 -16.26,7.24 -14.53,20.18 -11.57,26.78 l 4.82,10.8 -31.53,14.05 3.66,8.22 z m 35.82,-25.81 -4.03,-9.01 c -1.52,-3.39 -4.12,-11.88 7.08,-16.86 10.91,-4.86 15.28,1.97 16.07,3.76 l 5.07,11.33 -24.19,10.78"
         id="path2918"
         style="fill:black;fill-opacity:1;fill-rule:evenodd;stroke:none" /></g></g></svg>