<?xml version="1.0" encoding="UTF-8"?>
<svg xmlns="http://www.w3.org/2000/svg" version="1.1" viewBox="0 0 100 100" width="250" height="250">
  <defs>
    <style>
      .cls-1 {
        fill: #79b62a;
      }

      .cls-2 {
        fill: #777b7f;
      }
    </style>
  </defs>
  <!-- Generator: Adobe Illustrator 28.7.1, SVG Export Plug-In . SVG Version: 1.2.0 Build 142)  -->
  <g>
    <g id="Laag_1">
      <g id="Group_143">
        <path id="Path_374" class="cls-2" d="M98.710686,88.2834506c-3.3280029,0-6.5690002-.0090027-9.8090057.0070038-.7220001,0-.951004-.5690002-1.2929993-1-3.4966583-4.4000092-6.9879913-8.8026733-10.473999-13.2080078-.345993-.4360046-.723999-.8470001-1.3630066-1.5930023v15.6800079h-6.7419891v-21.9859924h9.7590027c.8390045,0,1.1699982.6999969,1.6000061,1.2339935,3.4493256,4.3513184,6.8953247,8.7050018,10.3379974,13.0610046.2680054.3390045.5890045.6360016,1.2220001,1.3150024v-15.4640045h6.7640076l-.0020142,21.9539948Z"/>
        <path id="Path_375" class="cls-2" d="M59.5126956,79.5454746c3.1429977,1.5130005,3.8550034,3.7169952,3,8.6419983h-6.6080017c0-1.1790009-.0070038-2.2489929,0-3.3200073.1374054-1.095993-.6396866-2.0958557-1.7356796-2.2332611-.1174927-.0147247-.2360687-.0189819-.3543167-.0127411-3.6259995-.0809937-7.2549973-.0279999-11.072998-.0279999v5.5630035h-6.7240067v-21.6999969c.314003-.3450012.7139969-.2830048,1.0889969-.2830048,6.3899994,0,12.7799988-.0310059,19.1699982.0130005,3.9800034.0279999,5.9889984,1.5059967,6.4140015,4.6309967.1138992,1.0799561.1723099,2.1650543.1750031,3.2510071.0780029,2.3999939-.4729996,4.4620056-3.3519974,5.4799957M42.8136904,71.804462c-.1934357,1.7283325-.1867218,3.4732056.0199966,5.1999969,3.8659973,0,7.6669998.052002,11.465004-.0220032,1.8399963-.0359955,1.9550018-1.4219971,1.9599991-2.8690033,0-1.5-.6699982-2.2899933-2.1539993-2.3000031-3.689003-.0220032-7.3789978-.0070038-11.2900009-.0070038"/>
        <path id="Path_376" class="cls-2" d="M10.159694,84.5494876l-1.8660002,3.6640015H.7106936l11.8559999-21.9790039h8.8679991l12.0359993,21.9589996h-7.5449982l-2.0149994-3.6439972h-13.7510004ZM12.8596938,79.465488h8.4060001c-1.4549999-2.7510071-2.809-5.3070068-4.2800007-8.0879974l-4.1259995,8.0879974"/>
        <path id="Path_377" class="cls-2" d="M82.9966891,46.9894481l-.0930023-.4119987h-11.3659973c.6000061-1.6479988,1.2129974-3.112999,1.6809998-4.6220016,1.6260071-5.25,2.5350037-10.5699997,1-16.007-.5500031-1.9470005-1.4429932-3.7999992-3.6999969-4.2340012-2.3679962-.4510002-3.8119965,1.0820007-5.0639954,2.7740002-1.4426117,2.1080532-2.6415939,4.3728466-3.5739975,6.7510014-1.6309967,3.7369995-2.9290009,7.6349983-5.2860031,11.0270004-1.2615509,2.0336494-3.1971359,3.5597534-5.4690018,4.3120003h-9.560997l10.1320038,8.6459999,1.6179962,1.3920021,29.6809998-9.6269989"/>
        <path id="Path_378" class="cls-1" d="M59.8986971,21.6334701l-.0920029-.0780001c-3.2440033-3.6190004-6.0960007-6.7680001-9.1989975-9.6680002l-28.7720032,9.3140001-1.4669991.4320002h6.8579979c.960331.0053558,1.9188271.08459,2.8670006.2370005.1117935.6861448-.1194305,1.3835506-.6189995,1.8669996-3.707386,4.4418755-5.1585808,10.345541-3.9329987,16,.8880005,4.2549992,3.3199997,7.4139996,8.4209976,7.2259998,2.7943115-.2592049,5.6094513-.1877098,8.387001.2130013,1.5739975-.5800018,3.2440033-.0149994,4.8330002-.4099998-3.0838776-1.5723839-5.1455765-4.6167965-5.4609985-8.0639992-.6516495-4.9958344.6249695-10.0522404,3.5699997-14.1400003.9501495-1.59021,2.5665665-2.6673307,4.4000015-2.9320002h1.9269943c2.560997.1780005,5.1729965.0240002,8.2770004.0240002l-.0210037-.0240002.0240097.0029984Z"/>
      </g>
    </g>
  </g>
</svg>