<?xml version="1.0" encoding="utf-8"?>
<!-- Generator: Adobe Illustrator 27.9.0, SVG Export Plug-In . SVG Version: 6.00 Build 0)  -->
<svg version="1.1" id="Laag_1" xmlns="http://www.w3.org/2000/svg" xmlns:xlink="http://www.w3.org/1999/xlink" x="0px" y="0px"
	 viewBox="0 0 51.4 14.5" style="enable-background:new 0 0 51.4 14.5;" xml:space="preserve">
<style type="text/css">
	.st0{fill:#3EAF49;}
	.st1{fill:#3EB049;}
	.st2{fill:#226027;}
	.st3{fill:#2C7F34;}
	.st4{fill:#266A2C;}
	.st5{fill:#266E2D;}
</style>
<g>
	<path class="st0" d="M4.8,11.8c0-0.5-0.1-1-0.1-1.6c0,0,0-0.1,0-0.1c0-0.6-0.1-1.2-0.1-1.8c0-0.2-0.1-0.3-0.2-0.3
		c-1.4-0.7-2.7-1.4-4-2C0.2,5.8,0.1,5.8,0,5.7c0.1,0,0.1-0.1,0.2-0.1C1.5,5,2.8,4.5,4.1,3.9c0.1-0.1,0.2-0.1,0.4,0
		c1.4,0.5,2.8,0.9,4.2,1.3c0.1,0,0.1,0,0.2,0.1C8.8,5.8,8.7,6.3,8.6,6.8c0,0,0,0.1,0,0.1c0,0.1,0,0.2,0,0.3c0,0.2,0,0.3-0.1,0.5
		C9,8,9.5,8.2,10,8.4c0.2-1.5,0.5-3,0.7-4.4C9.3,3.6,7.9,3.2,6.4,2.8c0.1,0,0.1-0.1,0.2-0.1c0.7-0.3,1.5-0.7,2.2-1
		c0.1-0.1,0.3,0,0.4,0c0.9,0.2,1.9,0.4,2.8,0.5c0.3,0.1,0.6,0.1,1,0.2c-0.2,0.8-0.4,1.6-0.5,2.4c0.3,0.1,0.7,0.2,1.1,0.3
		c0.3-1.3,0.7-2.5,1-3.8c-1.3-0.2-2.5-0.4-3.7-0.6c0,0,0,0,0,0c0,0,0.1-0.1,0.1-0.1c0.5-0.2,1-0.5,1.6-0.7C12.6,0,12.7,0,12.8,0
		c0.2,0,0.5,0.1,0.7,0.1c0.5,0.1,0.9,0.1,1.4,0.2c0.4,0,0.8,0.1,1.2,0.2c0,0.1,0,0.3-0.1,0.4c-0.3,0.9-0.6,1.8-0.8,2.7
		c0,0.1-0.1,0.2-0.1,0.3c1.2,0.3,2.3,0.5,3.5,0.8c-2.3,3.3-4.6,6.6-6.9,9.9c-1.7-1-3.3-2-5-3c-0.6,0.5-1.2,1.1-1.8,1.7
		C4.8,12.7,4.8,12.3,4.8,11.8C4.8,11.8,4.8,11.8,4.8,11.8z"/>
	<path class="st1" d="M39.4,11.5c0-2.6,0-5.1,0-7.7c0.8,0,1.5,0,2.3,0c0,0.2,0,0.3,0,0.5c0.1,0,0.2-0.1,0.3-0.1
		c0.5-0.2,1-0.3,1.5-0.5c0.5-0.1,1-0.1,1.4,0c0.4,0.1,0.7,0.2,1,0.5c0.1,0.1,0.2,0.1,0.3,0.1c0.6-0.2,1.1-0.4,1.7-0.5
		c0.4-0.1,0.8-0.1,1.2-0.1c0.3,0,0.5,0.1,0.8,0.1c0.8,0.3,1.2,0.9,1.3,1.7c0.1,0.5,0.1,0.9,0.1,1.4c0,1.4,0,2.9,0,4.3
		c0,0.1,0,0.2,0,0.3c-0.2,0.1-2,0.1-2.4,0c0-0.1,0-0.2,0-0.3c0-1.5,0-3,0-4.5c0-0.2,0-0.4,0-0.5c-0.1-0.4-0.3-0.7-0.7-0.8
		c-0.4-0.1-0.7-0.1-1.1,0c-0.2,0-0.4,0-0.6,0.1c0.1,0.6,0.1,1.1,0.1,1.7c0,1.3,0,2.7,0,4c0,0.1,0,0.2,0,0.3c-0.8,0-1.6,0-2.4,0
		c0-0.1,0-0.2,0-0.3c0-1.6,0-3.1,0-4.7c0-0.1,0-0.3,0-0.4c0-0.4-0.2-0.6-0.6-0.7c-0.2,0-0.4-0.1-0.5-0.1c-0.4,0-0.8,0-1.2,0.1
		c0,0.7,0,1.3,0,2c0,0.7,0,1.3,0,2c0,0.7,0,1.3,0,2C41.6,11.5,39.8,11.5,39.4,11.5z"/>
	<path class="st0" d="M29.4,7.3c0,0.1,0,0.2,0,0.2c0,0.1,0,0.1,0,0.2c-0.1,1.2-0.5,2.3-1.6,3.1c-0.7,0.5-1.4,0.7-2.2,0.8
		c-0.9,0.1-1.8,0-2.7-0.2c-0.3-0.1-0.6-0.1-0.9-0.2c-0.1,0-0.2,0-0.2-0.1c0-3.7,0-7.4,0-11.1c0.8,0,1.6,0,2.4,0c0,1.4,0,2.8,0,4.2
		c0.1,0,0.2,0,0.2-0.1c0.3-0.1,0.6-0.2,0.9-0.3c0.5-0.2,1-0.2,1.6-0.1c0.7,0.1,1.3,0.5,1.8,1.1c0.4,0.5,0.5,1,0.6,1.6
		c0,0.2,0.1,0.4,0.1,0.7C29.4,7.1,29.4,7.2,29.4,7.3z M24.3,10.1c0.4,0.1,0.8,0.1,1.2,0c0.6-0.1,1.1-0.5,1.3-1.1
		c0.1-0.3,0.2-0.6,0.2-0.9c0-0.3,0-0.7,0-1c-0.1-0.9-0.7-1.5-1.4-1.6c-0.3-0.1-0.6-0.1-0.9,0c-0.1,0-0.2,0-0.3,0.1
		C24.3,7,24.3,8.5,24.3,10.1z"/>
	<path class="st0" d="M31.4,4.2c0.8-0.2,1.5-0.4,2.3-0.5c0,0,0.1,0,0.1,0c0.2,0,0.3,0,0.5,0c0,0,0.1,0,0.1,0c0.1,0,0.3,0,0.4,0
		c0,0,0.1,0,0.1,0c0.2,0,0.4,0,0.6,0.1c0.1,0,0.2,0,0.3,0.1c0.8,0.3,1.3,0.8,1.4,1.7c0,0.3,0.1,0.6,0.1,0.8c0,1.6,0,3.3,0,4.9
		c0,0.1,0,0.1,0,0.2c-0.2,0.1-1.8,0.1-2.2,0c0-0.1,0-0.3,0-0.4c-0.1,0-0.2,0.1-0.3,0.1c-0.4,0.1-0.7,0.3-1.1,0.4
		c-0.5,0.2-1.1,0.2-1.6,0c-0.7-0.2-1.2-0.6-1.4-1.3c-0.2-0.7-0.2-1.3,0-2c0.2-0.5,0.6-0.9,1.1-1.1c0.4-0.2,0.8-0.3,1.2-0.3
		c0.2,0,0.3,0,0.5,0c0,0,0.1,0,0.1,0c0.5,0,0.9,0,1.4-0.1c0-0.3,0-0.6,0-0.9c-0.1-0.2-0.2-0.4-0.4-0.5c-0.2-0.1-0.5-0.1-0.7-0.1
		c-0.6,0-1.2,0.1-1.8,0.1c-0.3,0-0.5,0.1-0.8,0.1C31.4,5,31.4,4.6,31.4,4.2z M35.1,7.9c-0.4,0-0.9,0-1.3,0.1c-0.1,0-0.2,0.1-0.3,0.1
		c-0.3,0.1-0.5,0.4-0.5,0.7C33,9.4,33.1,10,34,10.1c0.1,0,0.1,0,0.2,0c0.3,0,0.6,0,1-0.1C35.1,9.3,35.1,8.6,35.1,7.9z"/>
	<path class="st2" d="M29.4,7.3c0-0.1,0-0.1,0-0.2C29.4,7.1,29.4,7.2,29.4,7.3z"/>
	<path class="st2" d="M29.4,7.7c0-0.1,0-0.1,0-0.2C29.4,7.6,29.4,7.6,29.4,7.7z"/>
	<path class="st3" d="M34.4,3.7c0,0-0.1,0-0.1,0C34.3,3.7,34.4,3.7,34.4,3.7z"/>
	<path class="st3" d="M35,3.7c0,0-0.1,0-0.1,0C34.9,3.7,35,3.7,35,3.7z"/>
	<path class="st3" d="M33.8,3.7C33.8,3.7,33.8,3.7,33.8,3.7C33.8,3.7,33.8,3.7,33.8,3.7z"/>
	<path class="st3" d="M33.7,6.7C33.7,6.7,33.7,6.8,33.7,6.7C33.7,6.8,33.7,6.7,33.7,6.7z"/>
	<path class="st4" d="M8.6,6.9C8.6,6.9,8.6,6.9,8.6,6.9C8.6,6.9,8.6,6.9,8.6,6.9z"/>
	<path class="st5" d="M4.7,10.1C4.7,10.1,4.7,10.2,4.7,10.1C4.7,10.2,4.7,10.1,4.7,10.1z"/>
	<path class="st4" d="M4.8,11.8C4.8,11.8,4.8,11.8,4.8,11.8C4.8,11.8,4.8,11.8,4.8,11.8z"/>
</g>
</svg>
