<?xml version="1.0" encoding="UTF-8"?><svg xmlns="http://www.w3.org/2000/svg" height="30" width="230" > <path fill-rule="nonzero" fill="#c7372d" d="m215,1.21c-11.2,0.5-17.2,9.2-17.2,17.1-0.1,7.61,5.45,10.2,6.16,10.4,0.0662,0.02,0.144,0.0625,0.219,0.0625,0.26,0,0.469-0.209,0.469-0.469l-0.0312,0.0312c0-0.0975-0.0324-0.171-0.0937-0.25-0.0225-0.035-0.0313-0.0662-0.0625-0.0938-0.625-0.7-3.02-2.76-2.91-6.69,0.025-2.22,1.31-5.26,3.97-7.22,2.49-1.84,6.31-2.16,7.75-2.16,2.98,0,4.48,0.638,6.31,1.25,1.54,0.515,3.88,0.43,4.59,0.406,0.141-0.0038,0.148,0.0938,0.0625,0.219-0.338,0.5-1.69,2.1-6.53,1.97-5.68-0.15-8.09,2.18-8.09,5.03s2.51,3.92,4.88,3.94c1.7,0,5.09-0.931,7.88-3.41,2.71-2.4,4.35-6.31,4.38-10.1,0.05-7.75-7.39-10.2-11.7-10zm-8.22,4.62c0.0266-0.00938,0.0687,0.00625,0.156,0.0938,0.35,0.362,1.22,1.04,2.84,1,2.2-0.0625,2.86-0.694,4.84-0.719,2.36-0.05,3.41,1.34,3.41,2.25,0.06,0.812-0.185,1.61-0.312,2-0.0438,0.132-0.119,0.142-0.25,0v0.0312c-0.284-0.312-1.02-0.879-2.78-1.09-2.5-0.312-3.96,0.229-5.97-0.594-1.61-0.662-1.94-2.26-1.97-2.88-0.006-0.0625,0.005-0.0844,0.0312-0.0938zm-34.7,4.94c-6.5,0-11.5,1.02-12.7,3.69-1.81,4.36,9.66,4.58,8.94,6.34-0.245,0.599-1.11,1.12-4.16,1.12-2.59,0-4.26-0.219-5.72-0.594-0.325-0.082-0.43-0.0292-0.656,0.219-0.695,0.755-1.12,1.24-1.81,2-0.226,0.246-0.34,0.398,0,0.531,2.16,0.846,5.7,1,10.3,1,7.93,0,11.2-1.55,12.1-3.81,2.01-4.84-9.71-4.4-8.81-6.62,0.256-0.635,2.13-0.781,4.06-0.781,2.22,0,3.27,0.0918,4.94,0.344,0.369,0.055,0.46,0.061,0.656-0.25,0.515-0.819,0.918-1.46,1.44-2.28,0.066-0.111,0.15-0.382-0.219-0.438-2.46-0.365-4.79-0.469-8.38-0.469zm-163,0.1c-0.411,0-0.5,0.143-0.656,0.531-1.77,4.39-3.38,8.38-5.16,12.8-0.153,0.38,0.001,0.438,0.375,0.438v-0.0625h14.1c7.9,0,11.1-1.05,12-2.69,0.921-1.58,1.63-3.8-1.41-5-0.05-0.02-0.053-0.147,0-0.156,1.31-0.178,2.16-0.388,2.78-1.81,0.98-2.26-0.212-4.06-6.34-4.06h-15.7zm36.5,0.0625c-0.389,0-0.684,0.144-0.969,0.406-4.73,4.34-9.31,8.56-14,12.9-0.0977,0.124-0.0455,0.345,0.125,0.406h7c0.336,0,0.489-0.152,0.656-0.25,0.75-0.649,1.5-1.29,2.25-1.94,0.168-0.112,0.317-0.19,0.531-0.188h9.09c0.175,0.016,0.376,0.168,0.438,0.312,0.255,0.596,0.494,1.18,0.75,1.78,0.082,0.129,0.259,0.234,0.5,0.25h7.97c0.192,0,0.342-0.208,0.25-0.469l-4.78-12.9c-0.052-0.142-0.28-0.344-0.438-0.344h-9.38zm61.7,0c-0.152,0-0.47,0.0408-0.312,0.469,1.6,4.37,3.17,8.6,4.78,13,0.104,0.284,0.289,0.281,0.719,0.281h9.78c0.378,0,0.54-0.0348,0.781-0.344,3.38-4.35,6.69-8.65,10.1-13,0.232-0.298-0.054-0.406-0.25-0.406h-6.41c-0.208,0-0.432-0.0468-0.688,0.281l-6.31,8.03c-0.172,0.219-0.191,0.281-0.5,0.281-0.265,0-0.346-0.0825-0.438-0.312-1.06-2.66-2.09-5.27-3.16-7.94-0.131-0.325-0.376-0.344-0.594-0.344h-7.5zm-45.8,0.0312c-0.208,0.0168-0.327,0.0752-0.438,0.344-0.438,1.08-0.785,1.95-1.22,3.03-0.162,0.401,0.0288,0.438,0.469,0.438h7c0.421,0,0.438,0.0798,0.281,0.469-1.25,3.09-2.31,5.74-3.56,8.84-0.182,0.454-0.143,0.594,0.344,0.594h7.66c0.344,0,0.464-0.0852,0.594-0.406,1.26-3.13,2.43-6.02,3.69-9.16,0.134-0.33,0.275-0.344,0.625-0.344h6.34c0.426,0,0.48-0.112,0.562-0.312,0.452-1.08,0.83-2.04,1.25-3.12,0.115-0.299-0.044-0.375-0.25-0.375h-23.1c-0.0958,0-0.181-0.0056-0.25,0zm30.7,0.0312c-0.389,0-0.684,0.113-0.969,0.375-4.73,4.34-9.31,8.56-14,12.9-0.108,0.138-0.0355,0.455,0.188,0.469l-0.0625-0.0625h7c0.336,0,0.489-0.121,0.656-0.219,0.749-0.649,1.5-1.29,2.25-1.94,0.166-0.112,0.317-0.221,0.531-0.219h9.09c0.174,0.016,0.345,0.2,0.406,0.344,0.255,0.596,0.527,1.18,0.781,1.78,0.083,0.129,0.226,0.234,0.469,0.25h8c0.191,0,0.311-0.208,0.219-0.469l-4.78-12.9c-0.054-0.142-0.248-0.312-0.406-0.312h-9.38zm44.3,0.0312c-0.236,0-0.557,0.0342-0.656,0.281-1.15,2.9-2.31,5.82-3.47,8.72-0.877,2.22,0.185,5,9,5,9.95,0,12.7-2.13,13.8-5.19,0.994-2.83,2.09-5.62,2.97-8.5,0.043-0.136-0.0752-0.312-0.281-0.312h-8c-0.174,0-0.431,0.152-0.5,0.312-1.06,2.48-1.96,5.01-2.94,7.53-0.821,2.11-1.28,2.5-3.12,2.5s-2.27-0.486-1.81-1.69c1.05-2.78,2.22-5.52,3.16-8.34,0.043-0.13-0.148-0.312-0.281-0.312h-7.88zm-121,2.97c0.047-0.0093,0.0795,0,0.156,0h2.62c1.87,0,3.95-0.188,3.5,0.938-0.469,1.16-1.94,1.12-3.91,1.12h-2.91c-0.335,0-0.41-0.0158-0.281-0.344,0.211-0.537,0.32-0.839,0.531-1.38,0.084-0.216,0.14-0.316,0.281-0.344zm31.8,1.81c0.37,0,0.525,0.196,0.625,0.469,0.338,0.834,0.665,1.67,1,2.5,0.099,0.225,0.03,0.385-0.125,0.406h-5.06c-0.142,0-0.173-0.186-0.0938-0.281l1.5-1.44,1.41-1.38c0.181-0.178,0.363-0.28,0.75-0.281zm46.6,0,0.0312,0c0.346,0.0101,0.499,0.204,0.594,0.469,0.338,0.834,0.665,1.67,1,2.5,0.099,0.225,0.0602,0.385-0.0938,0.406h-5.09c-0.141,0-0.173-0.186-0.0938-0.281l1.5-1.44,1.44-1.38c0.174-0.172,0.357-0.275,0.719-0.281zm-80.1,3.22,4.34,0c2.19,0,2.84,0.301,2.34,1.53-0.44,1.09-3.13,0.844-5.03,0.844h-2.5c-0.388,0-0.462-0.0432-0.312-0.406,0.246-0.596,0.378-0.908,0.625-1.5,0.141-0.342,0.149-0.469,0.531-0.469z"/></svg>