<svg xmlns="http://www.w3.org/2000/svg" xmlns:xlink="http://www.w3.org/1999/xlink" width="496.29" height="499.126" viewBox="0 0 496.29 499.126">
  <defs>
    <clipPath id="clip-path">
      <rect id="Rectangle_155" data-name="Rectangle 155" width="496.29" height="499.126" fill="#1b365e"/>
    </clipPath>
  </defs>
  <g id="Group_43" data-name="Group 43" style="mix-blend-mode: overlay;isolation: isolate">
    <g id="Group_42" data-name="Group 42" clip-path="url(#clip-path)" style="mix-blend-mode: color-burn;isolation: isolate">
      <path id="Path_31" data-name="Path 31" d="M175.261,433.9q-58.976-27.225-95.855-82.242Q42.55,296.628,42.539,227.443q0-14.736,1.407-28.927a194.933,194.933,0,0,1,4.832-27.792L22.688,186.038,0,146.9,108.333,84.511l62.391,107.766-39.7,22.688-30.628-53.316a167.173,167.173,0,0,0-9.37,31.763,183.451,183.451,0,0,0-3.108,34.031q0,55.029,30.061,100.12A179.82,179.82,0,0,0,197.949,394.2Zm173.56-275.086V113.438h61.824a182.181,182.181,0,0,0-62.958-50.185,176.843,176.843,0,0,0-78.272-17.878,178.888,178.888,0,0,0-58.988,9.642A183.594,183.594,0,0,0,159.38,82.242l-22.688-39.7a243.534,243.534,0,0,1,61.824-31.2A219.52,219.52,0,0,1,269.414,0,224.619,224.619,0,0,1,428.227,65.227v-31.2H473.6V158.813ZM334.074,499.126,225.741,436.735l62.391-107.766,39.136,22.688-32.33,55.584q66.94-9.631,111.464-60.689t44.513-119.677c0-4.152-.091-8.031-.295-11.616a77,77,0,0,0-1.407-11.072h45.942c.386,3.789.658,7.464.839,11.072.2,3.585.295,7.464.295,11.616q0,76.57-45.67,136.987-45.636,60.406-118.815,81.38l24.956,14.747Z" transform="translate(0 0)" fill="#1b365e"/>
    </g>
  </g>
</svg>
