<?xml version="1.0" encoding="UTF-8"?><svg id="Laag_2" xmlns="http://www.w3.org/2000/svg" viewBox="0 0 261.678 75"><defs><style>.cls-1{fill:#f0ab04;}.cls-2{fill:#c79e44;}.cls-3{fill:#3c3c3b;}</style></defs><g id="Laag_1-2"><path class="cls-2" d="m10.944,22.369c-.5.287-.93.689-1.249,1.168l8.514,4.972c.227-.337.532-.614.88-.816l12.748-7.29c.33-.188.696-.305,1.072-.341v-9.827c-.557.035-1.1.199-1.586.479l-20.378,11.655Z"/><path class="cls-2" d="m9.065,49.4c0,.564.131,1.118.38,1.625l8.518-4.961c-.16-.355-.245-.735-.245-1.125l.007-14.899c0-.387.089-.77.248-1.125l-8.51-4.972c-.252.511-.38,1.068-.38,1.633l-.018,23.821-.241.004h.241Z"/><path class="cls-2" d="m19.08,47.291c-.348-.199-.642-.468-.87-.799l-8.521,4.961c.319.476.742.873,1.235,1.157l20.389,11.676c.486.28,1.036.444,1.597.483v-9.827c-.383-.035-.749-.16-1.079-.348l-12.751-7.304Z"/><path class="cls-2" d="m55.525,52.431c.486-.284.905-.671,1.221-1.139l-8.532-4.883c-.224.316-.511.578-.845.77l-12.826,7.414c-.348.202-.742.319-1.146.355v9.824c.571-.035,1.129-.202,1.625-.49l20.503-11.85Z"/><path class="cls-2" d="m56.892,23.956l-8.489,4.944c.17.362.263.752.263,1.153l.057,14.774c0,.405-.089.799-.256,1.157l8.525,4.88c.252-.507.383-1.068.383-1.636l-.092-23.629c0-.571-.135-1.132-.39-1.643"/><path class="cls-2" d="m48.163,28.493l8.493-4.944c-.319-.472-.738-.862-1.231-1.146l-20.407-11.69c-.497-.28-1.054-.447-1.622-.483v9.827c.405.028.795.146,1.143.348l12.766,7.311c.337.195.632.461.859.777"/><path class="cls-1" d="m57.073,23.304l8.418-4.901c-.447-.696-1.054-1.278-1.771-1.689L35.729.68c-.713-.408-1.515-.639-2.332-.678v9.742c.653.039,1.288.224,1.86.55l20.407,11.69c.564.323,1.05.777,1.409,1.32"/><path class="cls-1" d="m2.622,16.67c-.724.412-1.338.997-1.785,1.696l8.443,4.926c.358-.554.848-1.015,1.423-1.338l20.378-11.658c.557-.323,1.189-.507,1.828-.55V0c-.82.039-1.622.273-2.335.681L2.622,16.67Z"/><path class="cls-1" d="m8.596,25.576c0-.653.153-1.295.447-1.877L.6,18.773c-.38.731-.582,1.547-.582,2.374l-.018,32.672v.004c0,.823.199,1.636.575,2.367l8.45-4.919c-.291-.582-.444-1.224-.444-1.87l.014-23.824Z"/><path class="cls-1" d="m10.687,53.028c-.568-.326-1.058-.784-1.416-1.331L.828,56.616c.447.696,1.054,1.274,1.771,1.686l27.962,16.017c.717.408,1.526.642,2.349.681v-9.745c-.646-.039-1.278-.227-1.835-.55l-20.389-11.676Z"/><path class="cls-1" d="m33.396,74.997c.823-.039,1.625-.277,2.342-.692l28.122-16.244c.713-.415,1.32-.997,1.764-1.689l-8.457-4.841c-.358.539-.838.994-1.398,1.317l-20.502,11.85c-.571.33-1.214.518-1.87.557v9.742Z"/><path class="cls-1" d="m65.732,18.809l-8.418,4.901c.295.582.451,1.231.454,1.888l.089,23.615c0,.664-.149,1.31-.444,1.888l8.457,4.841c.373-.724.568-1.533.568-2.353l-.121-32.416c-.004-.823-.206-1.633-.586-2.364"/><rect class="cls-3" x="197.939" y="20.055" width=".497" height="44.71"/><path class="cls-3" d="m110.038,47.135c-.596,1.394-1.355,3.257-1.863,4.215-.5.954-1.079,1.721-1.728,2.299-.642.582-1.437.993-2.381,1.242-.944.241-2.168.365-3.665.365h-2.828c-1.061,0-1.909-.064-2.54-.195-.635-.128-1.125-.351-1.476-.678-.351-.319-.578-.766-.695-1.33-.117-.568-.174-1.291-.174-2.168v-12.009h9.114c.568.014,1.047.071,1.426.17.454.117.837.319,1.153.596.309.28.589.653.834,1.114.241.461.578,1.274.866,1.948h.777v-9.543h-.777c-.287.674-.624,1.487-.866,1.948-.245.461-.525.83-.834,1.11-.316.284-.699.483-1.153.603-.38.096-.859.153-1.426.167h-9.114v-13.602c0-.642.106-1.047.326-1.199.22-.156.72-.238,1.49-.238h5.236v-.007c1.178.032,2.168.138,2.952.344.912.234,1.682.639,2.31,1.199.624.561,1.181,1.306,1.671,2.228.486.922,1.274,2.867,1.852,4.215h1.44v-9.87h-2.239c-2.267,0-5.552,0-7.723.011v-.011h-16.703l-.114,1.391c1.11.053,1.994.142,2.654.273.66.128,1.164.326,1.511.596.351.273.582.614.699,1.025.117.412.177.93.177,1.547v26.033c0,.979-.067,1.77-.195,2.381-.128.603-.387,1.079-.777,1.426-.387.348-.944.61-1.667.777-.724.167-1.678.287-2.87.365v1.316c.344,0,.869-.004,1.334-.011h17.994c2.136.007,4.541.011,7.216.011h2.313v-10.054h-1.54Z"/><path class="cls-3" d="m138.456,42.718c-.596-1.118-1.377-2.093-2.334-2.934-.954-.841-2.036-1.575-3.243-2.193-1.206-.617-2.405-1.188-3.601-1.706-.972-.422-1.898-.851-2.781-1.284-.883-.433-1.657-.947-2.327-1.543-.674-.592-1.203-1.291-1.586-2.097-.387-.805-.578-1.802-.578-2.991,0-.887.153-1.696.465-2.412.309-.72.741-1.338,1.288-1.859.546-.518,1.192-.915,1.941-1.192.745-.266,1.565-.404,2.462-.404,2.338,0,4.197.649,5.577,1.951,1.38,1.298,2.182,3.26,2.405,5.886h1.607v-8.667h-.046c-1.387-.355-2.7-.646-3.931-.862-1.33-.231-2.778-.351-4.342-.351-1.621,0-3.143.213-4.577.631-1.426.422-2.682,1.043-3.764,1.855-1.082.82-1.941,1.827-2.572,3.026-.635,1.206-.954,2.583-.954,4.144,0,1.462.287,2.725.859,3.789.575,1.064,1.306,2.004,2.203,2.824.898.816,1.905,1.522,3.04,2.118,1.128.592,2.256,1.139,3.374,1.632.997.451,1.965.908,2.909,1.377.947.472,1.792,1.018,2.537,1.653.745.632,1.345,1.377,1.792,2.246.447.869.671,1.909.671,3.122,0,.965-.174,1.852-.518,2.654-.351.809-.834,1.508-1.458,2.1-.621.592-1.341,1.05-2.164,1.373-.759.298-1.586.454-2.476.472h-.355c-1.497,0-2.721-.121-3.661-.365-.944-.241-1.742-.656-2.388-1.235-.646-.582-1.22-1.352-1.724-2.303-.504-.954-1.199-2.636-1.792-4.03h-1.611v10.061h10.203c1.568,0,3.097-.234,4.587-.702,1.494-.475,2.813-1.16,3.956-2.065,1.146-.905,2.061-2.008,2.757-3.307.699-1.298,1.047-2.789,1.047-4.477,0-1.511-.298-2.817-.894-3.934"/><path class="cls-3" d="m165.755,40.61h-.085l-.075,1.338c1.362.05,2.459.135,3.292.255.83.124,1.469.316,1.916.578.443.255.745.585.891.983.149.394.224.89.224,1.483v7.347c0,.493-.316.901-.947,1.22-.635.323-1.373.582-2.214.781-.844.199-1.667.333-2.473.408-.805.074-1.38.114-1.728.114-2.53,0-4.743-.454-6.641-1.355-1.894-.901-3.463-2.129-4.701-3.672-1.245-1.543-2.168-3.363-2.792-5.453-.621-2.09-.926-4.321-.926-6.698s.302-4.545.908-6.51c.607-1.965,1.533-3.647,2.771-5.045,1.238-1.398,2.803-2.487,4.687-3.268,1.884-.777,4.105-1.167,6.656-1.167,1.366,0,2.643.174,3.828.522,1.192.344,2.235.876,3.129,1.593.89.717,1.614,1.621,2.171,2.71.561,1.086.887,2.359.986,3.821h1.611v-9.146h-.014l-.004-.004c-.681-.177-1.43-.344-2.239-.497-.908-.174-1.824-.326-2.757-.465-.93-.135-1.852-.241-2.771-.316-.915-.075-1.76-.11-2.526-.11-3.026,0-5.854.39-8.479,1.167-2.629.777-4.924,1.962-6.883,3.541-1.958,1.586-3.502,3.558-4.63,5.921s-1.692,5.127-1.692,8.291c0,2.746.497,5.237,1.487,7.475.993,2.239,2.377,4.147,4.151,5.733,1.77,1.582,3.878,2.806,6.319,3.672,2.444.862,5.116,1.298,8.018,1.298,1.955,0,3.984-.209,6.077-.632,2.097-.419,3.888-.83,5.896-1.377v-8.568c0-.915.039-1.664.131-2.242.085-.582.259-1.043.518-1.394.263-.341.614-.592,1.061-.741.443-.145,1.029-.255,1.749-.33v-1.263h-13.9Z"/><path class="cls-3" d="m238.146,34.779c-1.549,1.919-3.247,2.362-4.009,2.362-3.031,0-4.799-2.46-4.799-5.239,0-1.676.615-3.203,1.622-4.286,1.01-1.106,2.336-1.794,3.595-1.794h.022c2.043,0,3.694,1.82,3.694,3.716,0,.494-.099.688-.564.787-.395.073-3.496.322-6.45.421.022,3.346,1.966,4.723,3.69,4.723,1.01,0,1.922-.395,2.83-1.23l.37.542Zm-4.184-8.047c-1.106,0-2.215,1.033-2.585,3.002,1.38,0,2.76-.025,4.184-.076.443,0,.593-.121.593-.465.022-1.281-.816-2.46-2.167-2.46h-.025Z"/><path class="cls-3" d="m248.744,34.632c-1.084,1.428-2.709,2.511-4.159,2.511-3.101,0-4.946-2.489-4.946-5.121,0-1.893.835-3.541,2.486-4.8,1.281-.982,2.757-1.402,3.665-1.402h.025c1.01,0,1.823.319,2.218.666.316.245.392.465.392.736,0,.519-.542,1.061-.813,1.061-.147,0-.271-.073-.465-.271-.739-.688-1.603-1.01-2.489-1.01-1.622,0-3.028,1.354-3.028,3.936,0,3.397,2.314,4.529,3.716,4.529,1.061,0,1.845-.293,2.98-1.351l.418.516Z"/><path class="cls-3" d="m256.484,36.847v-.637c1.428-.15,1.625-.3,1.625-1.896v-4.063c0-2.017-.762-3.024-2.413-3.024-.934,0-1.871.468-2.559,1.252v5.835c0,1.574.124,1.746,1.6,1.896v.637h-5.242l.025-.637c1.476-.124,1.673-.271,1.673-1.896v-11.741c0-1.552-.048-1.648-1.673-1.797v-.59c1.182-.175,2.658-.567,3.617-.86v8.289c.886-.883,2.189-1.794,3.522-1.794,1.989,0,3.394,1.259,3.394,4.184v4.309c0,1.625.198,1.772,1.625,1.896v.637h-5.195Z"/><path class="cls-3" d="m216.756,20.871c-.06,1.189-.16,2.522-.266,3.793h.714c.293-1.083.494-1.797.79-2.215.319-.564.809-.762,2.852-.762h1.527v12.133c0,1.944-.198,2.193-2.438,2.339v.688h7.04v-.688c-2.314-.147-2.511-.418-2.511-2.339v-12.133h1.724c1.868,0,2.263.198,2.683.762.271.417.513,1.033.762,2.215l.739-.073c-.125-1.188-.211-2.625-.25-3.72h-13.366Z"/></g></svg>