<?xml version="1.0" encoding="UTF-8"?>
<svg xmlns="http://www.w3.org/2000/svg" version="1.1" xmlns:xlink="http://www.w3.org/1999/xlink" viewBox="0 0 841.8898315 595.2755737">
  <defs>
    <style>
      .cls-1 {
        fill: url(#Naamloos_verloop_7);
      }

      .cls-2 {
        fill: #3a5f38;
      }
    </style>
    <linearGradient id="Naamloos_verloop_7" data-name="Naamloos verloop 7" x1="545.3420952" y1="291.5099884" x2="816.6449001" y2="20.2071834" gradientUnits="userSpaceOnUse">
      <stop offset="0" stop-color="#385d36"/>
      <stop offset="1" stop-color="#c2d333"/>
    </linearGradient>
  </defs>
  <!-- Generator: Adobe Illustrator 28.7.1, SVG Export Plug-In . SVG Version: 1.2.0 Build 142)  -->
  <g>
    <g id="Laag_1">
      <g>
        <path class="cls-1" d="M824.0443093,272.8611486c-.064752-5.6528535-.0216622-11.3069191-.0251813-16.9604765-.0035191-5.6535378-.0082895-11.3070951-.0120432-16.9606329-.0038319-5.6535378-.0124343-11.3070756-.0089151-16.9606133.0035191-5.6534205.0296389-11.3068605.0266672-16.960281-.0030499-5.6534205-.0366771-11.3068605-.0441064-16.960281-.0073511-5.6535573.0033627-11.3070951.0021897-16.9606524-.0010948-5.6535573-.1117519-11.3095389.0189251-16.9599877.1289565-5.5775833-.1254374-11.1477373-.092514-16.7250077.1560147-26.4533438.0533343-52.908193.0445756-79.3625143-.0022679-6.8269519.0383976-13.6540993-.0039101-20.4807775-.0812528-13.0963371-10.0057411-22.4472271-20.5296543-24.2721101-2.2209608-.3851295-4.4633491-.3299378-6.7000287-.330407-72.573178-.0151127-145.146356-.0241451-217.719573-.0270191-6.0828127-.0002542-12.175479-.1574223-18.2456229.1330621-6.067094.2903476-11.3228334,2.7057011-15.4506142,7.3007829-5.2899141,5.1121004-7.5170529,11.4487791-7.5149414,18.6917506.0224442,78.1810257.0531388,156.362071.0488768,234.5430968-.0008602,15.0735591,12.7642292,25.3975076,25.4529926,25.3316413,36.6017074-.190072,73.2051743-.0478601,109.8080156-.0202545,41.5116338.0313202,83.0232677.0777532,124.5349015.1241861,4.1099505.0045944,8.0872689-.6963572,11.7935363-2.4712685,2.166688-1.0376344,4.5360778-1.9259992,5.7206945-4.3153698,3.5111513-1.9916505,5.4557432-5.2081921,6.9875805-8.7889244,1.4552767-3.4016869,1.9502225-6.9358689,1.9081494-10.6079421ZM589.9404192,250.5254974c-.6404422-.0000782-1.2834651-.0407241-1.9208183.0026589-1.1895044.0809595-1.8131329-.3603587-1.7200716-1.6318588.0466089-.6366298.0048095-1.2796527.0046922-1.9197821-.0112221-60.8134839-.0228743-121.6269874-.0288177-182.4404909-.0001173-.9574765.0697569-1.914953.1078026-2.8736417-.370701-.4163715-.8178258-.7885388-1.1308718-1.2372276.3130655.4486693.7602685.8207193,1.1316929,1.2360351,8.5347456-.0413107,17.0694912-.1118692,25.604276-.1191811,52.9210378-.0453381,105.8420756-.0834229,158.7631134-.1014095,5.2236372-.0017596,4.6662855-.6444892,4.6647215,4.5436244-.0189251,60.3591254-.0540382,120.7182312-.0902461,181.0773762-.0007038,1.1669428.1358383,2.3509535-.2891941,3.4851098-61.6987597-.0069992-123.3975193-.0139592-185.096279-.0212125Z"/>
        <path class="cls-2" d="M151.5570805,442.4761651c-.0007234-39.270949-.0007038-78.541859-.0008211-117.8128081,0-.2134229-.0052005-.426924-.0020137-.6403078.04221-2.8348003.042425-2.8616491,2.7998378-2.8671596,7.6874374-.0153589,15.3749334-.0063702,23.0624098-.0069956,2.9895774-.0002345,5.9806212.0553391,8.9680871-.0239959,1.5141048-.0402146,2.177304.4947691,2.0327265,2.030312-.0697178.740395-.0107138,1.4929052-.0106942,2.2399049.0016032,31.4810714.003089,62.9621428.0047117,94.4432142.0000391.8537307-.0216035,1.708204.0067254,2.5609968.0686425,2.0677518.078066,2.0393788,2.1817225,2.0353535,12.9188557-.0247775,25.8376919-.0457251,38.7565476-.0444745,3.2746855.0003127,3.2787716.0395112,3.2788693-3.1220477.0004692-17.5013431-.0016032-35.0027253-.0021115-52.5040684-.0004106-14.6200361-.0001564-29.2400331.0009971-43.8600692.0000782-.8536526,0-1.7075787.0201959-2.5608795.0179867-.7591149.4117966-1.1675535,1.1863763-1.1770502.533754-.0065657,1.0675275-.0140693,1.601301-.0140693,10.356735.0000391,20.7134896-.0065266,31.0702051.007191,2.6826313.0035173,2.7025925.0328674,2.7109798,2.8717712.0154646,5.2290372.0050441,10.4581135.0050636,15.6871897.0001564,73.3135644.000391,146.6271287.0000782,219.9406931q-.0000196,4.6523928-4.7783697,4.6530181c-9.395798.0001563-18.7916547.0155934-28.1873941-.0078944-4.0288346-.0100439-3.6200879.5388919-3.621691-3.5235689-.0126493-31.9079172-.0000391-63.8158735-.0151323-95.7237908-.0020919-4.4084865.6584679-3.8257454-3.9309051-3.835164-12.3853168-.0254028-24.7707314-.0124278-37.1561069-.0075427-3.4136128.0013288-3.126276-.3192941-3.126667,3.0584625-.003656,32.0146482.0032259,64.0292574-.0107138,96.0439056-.0019746,4.5194773.5327373,3.9778107-3.833347,3.9882063-9.7160582.023058-19.4322924.0297409-29.148292-.0039472-4.0184532-.0139129-3.8574726.7784992-3.8596818-4.0107953-.0080158-17.287842-.0023656-34.5757232-.0022092-51.8635652.000176-21.9833415.0000391-43.966683-.0006843-65.9500245Z"/>
        <path class="cls-2" d="M404.9474147,442.7395339c0,21.1255854-.0059434,42.2511317.0028153,63.3767171.0036755,8.8052095-.7991549,17.5179917-4.5623539,25.5894501-9.2235172,19.7830259-24.3962766,32.322726-46.2716064,35.0182406-30.6059344,3.7713442-51.4164542-13.8258653-60.7706483-34.2493162-3.2832682-7.1685243-4.7248986-14.7795268-4.7289455-22.6496774-.0172242-33.395351-.0124147-66.7907411-.0137246-100.1860922-.0004301-11.2029246.1047723-22.4069436-.0119064-33.6086176-.3095464-29.7185053,22.5086164-51.817801,45.351589-56.5822789,34.8307257-7.264801,62.9054687,15.6388071,69.4433046,43.4155196,1.2271981,5.2138346,1.541339,10.5284989,1.5469696,15.8591865.0226006,21.3389692.0093452,42.6778994.0093452,64.0168686h.0051614ZM324.514538,442.0171163c0,21.3410405-.002307,42.6820811.0028935,64.0231216.0006647,2.6651093-.0697178,5.3700425.6177634,7.9484695,2.4814545,9.3067397,11.4772058,16.6311982,22.516202,15.5473569,12.6649506-1.2434884,18.958872-12.2250176,18.9339644-20.5870453-.1329057-44.6024183-.128761-89.2056573-.006921-133.8081147.0264717-9.6865316-8.0451176-20.2784985-20.3327786-20.5519893-13.4725514-.2999489-21.6255107,10.7487219-21.5530558,19.2526147.015406,1.8103234-.1686835,3.6218974-.1698175,5.4329243-.0128644,20.9142338-.0082113,41.8284285-.0082504,62.7426623Z"/>
        <path class="cls-2" d="M483.839969,443.0122431c.0003519-21.766284-.0054742-43.5326071.003089-65.2988912.0036755-9.2855185,1.500478-18.3020796,5.8629454-26.5741813,9.1543077-17.3586573,23.1562141-28.6331398,42.7269842-31.8178349,32.7798561-5.334244,56.9800782,15.3604702,64.9016354,38.9983571,1.9386094,5.7848122,2.8734071,11.7732379,2.8550294,17.8987216-.0256505,8.535744.0036364,17.0716053-.0124343,25.6073884-.0048486,2.5808501-.0379284,2.6132094-2.6574109,2.6159841-10.8887294.0114508-21.777498.0075427-32.6662274-.0044943-2.6193261-.0029311-2.6515847-.0271615-2.6564333-2.6140301-.0156015-8.3223993-.0239692-16.6448376.0005474-24.9671978.0245948-8.3572989-3.3266708-14.9395256-10.5702093-19.1743349-6.7738913-3.9603023-13.936568-4.0485869-20.7546439-.257702-6.7943804,3.7777145-10.7284918,9.751133-10.7449926,17.6981956-.0782419,37.6638874-.0520049,75.3279703-.0590822,112.992014-.0013685,7.1485928.0793759,14.2978891.0075075,21.4456611-.1047918,10.4186023,8.4683514,19.2876706,18.151975,20.2615372,11.4100687,1.1474657,21.2082595-5.6643246,23.4289074-16.2635997.4379359-2.0903017.5419066-4.2167928.5392868-6.3524288-.0117695-9.7094723-.0155624-19.4189447.0005083-29.128417.0042621-2.585149.0411347-2.6201658,2.6524059-2.6237222,10.9955154-.0149291,21.9910308-.0168831,32.9865463.0003517,2.2744124.0035564,2.3318524.050493,2.336701,2.276016.0252595,11.6299268.3795184,23.2738838-.0689358,34.8864194-.5465206,14.1520768-5.9110793,26.4531465-15.880026,36.6878713-8.0093007,8.2228983-17.3116854,14.1985835-28.6421828,16.5515506-20.621699,4.2823712-38.8582113-.2045124-54.1940237-15.0809999-8.8504896-8.5854163-14.5359537-18.8403071-16.6281144-31.0185444-.6495919-3.7811146-.9174758-7.6069381-.9180623-11.4459321-.0033627-21.7659323-.0016032-43.5318255-.0012903-65.2977578Z"/>
        <path class="cls-2" d="M54.5914285,442.6256901c.0005083,21.873953.347553,43.7555659-.137158,65.6187715-.2662611,12.0100705,10.0564166,22.3018931,21.7318862,21.749909,8.87832-.419733,17.504387-6.6191586,19.8505799-15.7520647.6361606-2.4763076.6216051-5.0694292.6242151-7.6281202.0096678-9.4964793-.0059239-18.9929977.0103814-28.489477.004526-2.6321247.0400692-2.6685485,2.6198148-2.6720267,10.9959651-.0150072,21.9919693.0011334,32.9879246-.0161797,1.3750504-.0021886,2.4555595-.0405273,2.426253,1.938979-.1799838,12.1586185.4368802,24.3352143-.2813543,36.4758163-1.1102067,18.7657009-10.3302438,33.0374055-25.4353676,43.7243399-8.0970834,5.7286524-17.2084479,8.7482681-27.1037471,9.5778075-14.4911826,1.2148418-27.7822838-2.0331649-39.4811312-10.7481748-13.0585895-9.7279578-21.2765843-22.5245392-23.4746072-38.8571955-.3684478-2.7378396-.5921373-5.517887-.5946838-8.2787064-.040338-43.7472806-.0300299-87.4946395-.0398004-131.2419592-.0029961-13.4107047,3.4347031-25.7155263,11.8169337-36.3824511,9.3875819-11.9463289,21.354621-19.8653702,36.4940562-22.3270614,35.4520669-5.7644313,62.0213268,18.8844299,67.1117064,46.42685.5396387,2.9198021.8678952,5.9174541.9054716,8.8839192.1161703,9.1748794.0559541,18.35226.0372441,27.5285854-.0045162,2.2244287-.0521222,2.2767195-2.3130837,2.2808621-11.1026924.0202832-22.205463.0198924-33.308175.0034001-2.319252-.0034782-2.3593016-.0489298-2.3661541-2.5753005-.0208313-7.6824823.0086219-15.3651209-.0189935-23.047564-.0072729-2.0239808-.0416821-4.0586308-.2492716-6.0692458-.9700574-9.3950634-10.1799868-17.5735653-19.6507618-17.8681601-9.3397266-.2905303-15.9745634,3.7458633-20.2290817,11.8847759-1.3974457,2.6733555-1.9547876,5.5854976-1.9505256,8.6373944.0313398,22.4073735.0169211,44.8148251.0174295,67.2222767Z"/>
        <path class="cls-2" d="M617.09308,442.6964272c-.0005083-39.2720433-.005396-78.5440866.0063735-117.81613.0012903-4.3974656-.4909575-3.8494287,3.9845913-3.8514218,32.2452615-.0143038,64.4905621-.0075818,96.7358627-.0074645.5338908,0,1.076775.0644841,1.599952-.0102002,1.7634741-.2517226,2.112728.6188131,2.1051424,2.1997684-.0516139,10.7782283-.0151714,21.5568083-.033158,32.3352711-.0039883,2.4178029-.0514575,2.4641143-2.503273,2.4682178-10.8907627.0183682-21.7816036.0077772-32.6723663.0077772-9.8230593-.0000391-19.6461186.0004299-29.4691778-.0001172-2.9877397-.0001954-2.864101-.1998226-2.8644138,2.6959835-.0021115,20.2763099-.0023461,40.552659-.0015641,60.8289689.0001564,2.923124-.1285655,2.6719876,2.8722341,2.6723784,14.2006981.001915,28.4014744.000469,42.6021725.0005862.7473846,0,1.4964114.0345869,2.2418409-.0025012,1.0583973-.0526425,1.5983097.390383,1.5780552,1.473599-.01001.5332642.0105574,1.0670364.0105574,1.6005741.0007038,10.351617-.0068819,20.7031948.004614,31.0548118.0035973,3.2916605-.0846937,2.8600468-3.0439675,2.861102-14.0939512.0048461-28.1879806.0012506-42.2819318.0008598-.7473846-.0000391-1.4978973.0444745-2.2415281-.0078163-1.1688197-.082227-1.8405039.2905694-1.7358685,1.5885371.042777.529825-.0035191,1.0664893-.0035191,1.6000661-.0021897,19.956156-.0037537,39.9123121-.0044576,59.8684681,0,.6402687.0167354,1.2804984.0150149,1.9207671-.0021115.7908099.4006332,1.1509439,1.1750759,1.1496933.8540533-.0014069,1.7081847.0140693,2.562238.0141083,20.0729497.0003127,40.1459776-.0065657,60.2189272.0040645,3.9791171.0021104,3.5300764-.421179,3.5397735,3.6483164.0242429,10.1381159.0148585,20.2763099.0046922,30.4144649-.0028935,2.8661044-.0254941,2.8973303-2.6644491,2.8979166-32.9926852.0068392-65.9853704.0003908-98.9780947.0093013-3.1214274.0008207-2.755399-.0819535-2.75579-3.1635521-.0046922-39.4854662-.003089-78.9709325-.0035582-118.4563987Z"/>
        <path class="cls-2" d="M483.7627828,235.6608638v-4.430626c.0001173-38.8375962-.0060607-77.6752119.0091106-116.5128179.0017205-4.3167138-.5317011-3.7878756,3.6807733-3.8046024,7.1522366-.0284121,14.3047079-.0164239,21.4570618-.0022863,3.395372.0067122,3.1169308-.3139302,3.1175564,3.0745151.0058261,30.1951603.005787,60.3903205.0052787,90.5854808-.0005474,30.1951603-.0036755,60.390301-.0056306,90.5854612-.0000391.4267872.0039492.8536135-.0008211,1.2803616-.0306555,2.7561492-.031242,2.7803014-2.788557,2.7845417-8.3266479.0127991-16.6532566.011529-24.9799045.0016219-2.6407536-.0031265-2.6672644-.0148118-3.4998901-2.5837616-6.6678482-20.5730346-13.3230276-41.1501923-19.9857535-61.7248488-5.5441515-17.1205155-11.0927998-34.2395459-16.6421518-51.3583614-.2811783-.8673896-.5878508-1.7265331-1.079864-3.1666981-.6890062,1.7399771-.4620615,2.8818737-.4625307,3.9742348-.015054,37.0236773-.008876,74.0473742-.016579,111.0710515-.0008602,4.2218343.4255408,3.7809778-3.739269,3.7902596-7.1523148.0159452-14.304747.010083-21.4571009-.0004299-3.7567864-.00553-3.3558014.3289472-3.3567789-3.5017224-.0086023-33.289343-.0049659-66.5786861-.0050441-99.8680291-.0000391-26.6741707-.0002737-53.3483317-.000391-80.0225024,0-.7468727-.0067254-1.4938529.0028153-2.2406084.0339791-2.6591397.0360906-2.6755831,2.8768089-2.6822758,5.6578194-.0133365,11.3156779-.0073375,16.9734972-.0079628,3.2025629-.0003517,6.4051258-.0089398,9.6076495.0066731,2.4891183.0121347,2.5062448.0210941,3.2272359,2.4362102,4.203833,14.0823069,8.4006277,28.166734,12.5966014,42.2514053,7.7517005,26.0198718,15.501055,52.0404471,23.2518171,78.0605925.1771294.5946218.2199846,1.2529461,1.2140601,2.0051241Z"/>
        <path class="cls-2" d="M218.5149619,299.2181169c-9.6857742,0-19.179795-.0294673-28.6732879.0277477-1.6693961.0100634-1.8019108-.994951-2.0896582-2.1979316-2.1055529-8.8024347-4.2625242-17.5925784-6.4002381-26.3873336-3.220139-13.2480093-6.4227214-26.5003372-9.6676311-39.7422889-.7708454-3.1457115-.5356308-2.6505515-3.3019391-2.6604977-4.6971561-.0169027-9.3944686-.0241913-14.0916051-.0041231-2.2548031.0096335-2.2958791.0420319-2.3016466,2.2847898-.0186514,7.2555583-.0031672,14.5112143-.0027958,21.7668312.0007625,14.4045419.0004497,28.8090642-.0004301,43.2136061-.0000391.8535549-.005963,1.7071488-.0147999,2.5606646-.0081722.7899696-.4323444,1.1434208-1.2024078,1.1387115-.6404813-.0038886-1.2810212.0078163-1.9215416.0078749-7.3661019.0007035-14.7322233.0041231-22.0983251-.0011334-3.308645-.0023449-3.0233708.2784933-3.0254139-3.1638843-.0062856-10.5633203-.0023754-21.1266406-.0023461-31.6899609.0001173-49.8290325-.0058359-99.6580649.0107431-149.4870876.0014956-4.4879387-.6448411-3.8753689,3.883348-3.8716659,15.0510758.0122911,30.1064919-.127532,45.1515461.1953087,9.6414723.2068963,18.7422696,2.6493205,26.4444678,8.9317254,6.6612792,5.4333737,10.311436,12.646011,12.2985312,20.8141564,1.2128675,4.9856389,1.641204,10.089489,1.6909801,15.2034904.0830905,8.5349819.0268431,17.0713708.0209584,25.6071539-.0065495,9.4865722-2.1210566,18.3704719-7.5268087,26.3190391-1.8076587,2.6579184-3.8251357,5.1485493-6.1969498,7.3062467-1.2904447,1.1739433-1.4618262,2.2959475-1.0317497,3.9502584,4.0198217,15.4624137,7.9460346,30.9491165,11.9017495,46.4281788,2.6094725,10.2111979,5.2201572,20.4221027,7.8397569,30.6307017.2125553.8282497.4775652,1.6406325.3074936,2.8194218ZM151.9723376,169.8800417c0,9.2837599-.0084459,18.5675588.0058457,27.8512991.003656,2.3777446.0365207,2.4092441,2.4754328,2.4179788,5.017866.0179774,10.0364944-.0520954,15.053637.0091255,4.9392525.0602829,8.8673228-1.962076,12.0647634-5.586162,2.9877592-3.3864522,3.9685011-7.4471348,3.9544246-11.8500912-.021799-6.8293573-.0171264-13.6588709-.0033041-20.4882868.0064713-3.1997413.0294825-6.3989551-.2953917-9.5872847-.6386631-6.2675442-4.3816663-10.7316336-10.2251979-12.03859-1.6511162-.3692889-3.3382057-.63043-5.0636537-.6159016-5.1243.0431262-10.2492452-.0012408-15.3738385.0171274-2.554535.0091548-2.5820429.0372933-2.5857966,2.659765-.0129817,9.0703076-.005005,18.1406837-.006921,27.2110206Z"/>
        <path class="cls-2" d="M18.2964327,205.2500139c.0007869-16.7516859-.0086463-33.5033913.0045407-50.2550771.0072044-9.154733,2.0537631-17.7547071,7.1952629-25.4538575,16.9391613-25.3656218,49.0603882-25.7458827,66.8128347-10.1664791,10.4255926,9.1494277,16.0480057,20.5127224,16.1058074,34.4783228.026501,6.401808.0203034,12.8039287-.0061585,19.2057367-.0100491,2.4307584-.0548788,2.4750961-2.468072,2.4811342-8.1132323.0202832-16.2265623.0176843-24.3397946-.0017587-2.6877536-.0064484-2.7049582-.0417974-2.7105106-2.9130996-.0126004-6.5086172-.1239124-13.0198919.0212418-19.5252653.1902577-8.5274099-7.626185-15.8956982-15.7776389-16.0905477-9.2173098-.2203403-16.9298356,7.2104389-16.8904654,16.9802918.0872695,21.6595335.0290572,43.3196727.0300348,64.979558.0005572,12.2703909.008094,24.5407623-.002131,36.8111533-.0044282,5.3140976,1.8142033,9.8208345,5.983676,13.2020498,5.3608636,4.3474024,11.4222586,4.7728609,17.4377093,1.9905858,5.8368355-2.6996376,9.1573576-7.5363769,9.1813463-14.1958869.0411445-11.4166602.0162662-22.8335354.0115056-34.2503324-.0013294-3.1895411.3310424-3.050275-3.1787208-3.0519945-3.5228133-.0017587-7.0466726-.0551828-10.5679218.0179774-1.4648566.0304248-2.0771066-.3449119-2.0620428-1.9603174.0766095-8.2151211.0746348-16.431571.0151225-24.6469071-.0116424-1.6059283.6358869-1.9686612,2.0924246-1.9646945,13.7711592.037479,27.5426996.061768,41.3134678-.0197361,1.9988843-.0118416,1.9366543,1.0321368,1.9337902,2.3967967-.0177227,8.4291889-.0049268,16.8584169-.0078887,25.2876448-.0045846,13.0168631.0206749,26.0338629-.0283974,39.0505697-.0884376,23.4593636-19.3127789,41.3300835-39.1899087,43.6452785-26.4707586,3.0831814-45.079057-15.3858535-49.4803522-33.4255413-.9907274-4.0607216-1.4177247-8.1848136-1.4221578-12.3505467-.0178351-16.7516663-.0073853-33.5033717-.0066033-50.2550576Z"/>
        <path class="cls-2" d="M228.2266017,204.8117954c.0002151-29.869789.0001955-59.7395682.0003324-89.6093475,0-.8534181.0449666-1.7095425-.0079376-2.5596094-.0733347-1.1779002.3280609-1.826972,1.6104116-1.7411788.6374314.0426475,1.2802783.0033121,1.9206619.0033024,24.6552453-.0000879,49.3105102-.0045725,73.9657556.0050122,3.891569.0015046,3.5834889-.4469141,3.5877119,3.6221124.0075857,7.3607651.0117695,14.7215595-.0021506,22.0823051-.0051614,2.7354556-.0301472,2.757263-2.843299,2.7578297-15.2627318.0030483-30.5254832-.0156618-45.788215-.0036346-4.1699321.0032828-3.8501606-.5579049-3.8525458,3.6634701-.0082308,14.6147015-.0029913,29.229403-.0024829,43.8441045.0000196.6400538.0529042,1.2845824-.0045749,1.9192625-.1216054,1.3433216.3619228,1.9670784,1.7979811,1.8794387,1.4886302-.0908249,2.9872705-.0162774,4.4815313-.0164728,9.712676-.0012311,19.4253519-.0108646,29.1380279-.0000195,2.9661166.0033219,2.9861756.0288224,2.9912001,3.0045694.0127666,7.5741099.0146826,15.1482588.0022483,22.7223686-.0047313,2.8817564-.0280162,2.8990304-3.0487183,2.9013166-10.8867353.0082266-21.7734901-.0025794-32.6602253.0086174-2.6502553.0027161-2.6877145.0286857-2.6895522,2.5464585-.0112026,15.3616035-.0090129,30.7231875.0019746,46.0847911.0018573,2.5817685.0316917,2.6124473,2.5907625,2.6142059,15.1560631.0103956,30.3121067.0053737,45.4681699.0055691.5336562.0000195,1.0674297-.0053737,1.6010077.001446,2.7795246.0355835,2.8097109.0366387,2.8155761,2.8235058.0164617,7.7874351.0198635,15.5749874-.003089,23.3624029-.0071947,2.434901-.0530997,2.483225-2.4750809,2.4843975-25.4023953.0123106-50.8048102.0126428-76.2072055.0002345-2.3378936-.0011334-2.3748835-.0525448-2.3815503-2.5568737-.0195507-7.3607065-.006921-14.7215302-.006921-22.0822953,0-23.2557696-.0000196-46.5115197.0001955-69.7672893Z"/>
        <path class="cls-2" d="M321.1242101,205.0309633c.0001173-30.1899624-.0057479-60.3799347.0073511-90.5699069.0016814-3.9007033-.5820638-3.5582242,3.5960014-3.5594064,24.6553626-.0070346,49.3107253-.001788,73.9660879.0076892,3.7983513.0014558,3.466302-.38881,3.474787,3.3887091.0165008,7.3607553.0181431,14.7215791.007703,22.0823442-.004223,2.9689273-.0260024,2.9907542-2.9474652,2.9915651-14.8357052.0041328-29.6714104-.0041817-44.5071156-.0074157-.7471109-.0001661-1.4943391.0007719-2.2413717.010718-2.7592701.036756-2.7889089.038241-2.7908249,2.812778-.0105574,15.2549898-.0112221,30.50996-.0000391,45.7649498.0019551,2.6735509.0353086,2.6962767,2.8832998,2.6992273,10.3531182.0107864,20.7062754.0049829,31.0593936.0053151.6404031.0000391,1.2813927-.0189349,1.921092.0016023,2.2644416.0726521,2.3238757.0774005,2.3368183,2.3494888.0352304,6.187154.0157579,12.3746207.0168918,18.5619506.0003519,1.9202004-.0830123,3.844778.0208802,5.759253.0845373,1.5580342-.5173118,2.0047919-2.0327656,1.9877134-6.1897551-.0697406-12.3807224-.0294282-18.5712596-.0286466-5.0164779.0006253-10.0329948-.0143819-15.0493554.011275-2.5234494.0128968-2.5790125.0467803-2.5814368,2.3640271-.0163444,15.5750265-.014663,31.1500724.0028153,46.7250794.0023461,2.1207265.0581829,2.1538675,2.3923423,2.1552744,15.4763429.0093795,30.9526467-.0090864,46.4289896.0114313,3.7308231.0049438,3.6604014-.6587542,3.6558657,3.5606961-.0080158,7.467457.0129817,14.9349727-.0073902,22.4023711-.0072729,2.6638783-.0459442,2.7037607-2.5706839,2.7046791-25.2958048.0092232-50.5915706.0078749-75.8873754-.0022276-2.5600092-.0010161-2.5797945-.0367364-2.5802637-2.9805735-.0049659-30.4033267-.003089-60.8066339-.0029717-91.2099607Z"/>
        <path class="cls-2" d="M462.6921603,442.6905259c-.0009775,39.2687996.0049659,78.5375601-.0092279,117.8063597-.0016032,4.3781985.4838019,3.7960436-3.6625129,3.8064783-10.1424788.0255982-20.2850358.0161015-30.4275928.0021104-2.4436434-.003361-2.4448946-.0365801-2.4906042-2.4140121-.0082113-.4266504-.0005474-.8536135-.0005474-1.2804593.0001173-78.4308682-.0036364-156.8617754.0099709-235.2926436.0008211-4.8549511-.6419671-4.1396072,4.2896215-4.1584444,9.7153349-.0371272,19.4309434-.0070737,29.1464347-.0085197,3.2455744-.000469,3.1476254-.3025282,3.1471562,3.0924632-.0033627,25.610085-.0017987,51.22017-.0017205,76.8302549.0000391,13.8721375,0,27.744275-.0009775,41.6164125Z"/>
      </g>
    </g>
  </g>
</svg>