<?xml version="1.0" encoding="UTF-8"?>
<svg xmlns="http://www.w3.org/2000/svg" version="1.1" viewBox="0 0 100 100">
  <defs>
    <style>
      .cls-1 {
        fill: #2bb178;
      }

      .cls-2 {
        fill: #09444c;
      }
    </style>
  </defs>
  <!-- Generator: Adobe Illustrator 28.7.1, SVG Export Plug-In . SVG Version: 1.2.0 Build 142)  -->
  <g>
    <g id="Laag_1">
      <g>
        <g>
          <path class="cls-2" d="M8.3082206,39.4313457c-.2017214,0-.3771721.069805-.5259768.2090397-.14918.1392347-.2234885.3146854-.2234885.5259768v3.5594914H2.5436797v-3.5594914c0-.2112914-.0744962-.3867421-.2234885-.5259768s-.3193766-.2090397-.5115279-.2090397c-.2306192,0-.4178917.069805-.5620052.2090397s-.2161703.3146854-.2161703.5259768v8.6179136c0,.2114791.0669903.3869298.2017214.5259768.1343558.1394223.3171248.2090397.5475563.2090397.201909,0,.3769845-.0696173.5261645-.2090397.1488047-.139047.2279921-.3144977.2377498-.5259768v-3.6604459h5.0150755v3.6604459c0,.2114791.0720568.3869298.2161703.5259768.1441135.1394223.3171248.2090397.5188462.2090397.2306192,0,.4154523-.0696173.5548746-.2090397.139047-.139047.208852-.3144977.208852-.5259768v-8.6179136c0-.2112914-.0671779-.3867421-.2017214-.5259768s-.3169372-.2090397-.5475563-.2090397Z"/>
          <path class="cls-2" d="M26.3366722,39.3881867c-.2401892,0-.4419106.1200946-.6051642.3602838l-2.5555991,3.6564936-2.6900956-3.6853914c-.1636289-.2208615-.3602838-.331386-.590903-.331386-.1730113,0-.3435832.0671779-.5117156.2017214s-.2521987.3075548-.2521987.5188462c0,.086318.0144489.1752631.0433466.2664599.0287101.0915721.0814392.1898996.1585624.2955453l3.069543,4.0975481v4.0159682c0,.2114791.0720568.3869298.2161703.5259768.1441135.1394223.3171248.2090397.5188462.2090397.1823937,0,.3458349-.0696173.4899484-.2090397.1441135-.139047.2161703-.3144977.2161703-.5259768v-3.8715263l3.069543-4.3429445c.0480378-.0669903.0840662-.139047.1080851-.2161703.0240189-.076748.0360284-.1534959.0360284-.2306192,0-.2017214-.0744962-.374545-.2233009-.5186586-.1489924-.1441135-.314873-.2161703-.4972667-.2161703Z"/>
          <path class="cls-2" d="M45.4149194,39.3953173c-.3075548,0-.5286039.1538712-.6629597.4612383l-2.9102417,7.3293595-3.0849184-7.3149106c-.1441135-.3171248-.3698538-.4756872-.677221-.4756872-.1538712,0-.314873.0626744-.4828178.1874602-.1683201.1249734-.2521987.3026759-.2521987.5331074,0,.0482255.0046912.0987028.0144489.1514318.0093824.0529167.0287101.1033939.0576079.1512441l3.6459971,8.6323625c.0671779.1441135.1608142.2548257.2810964.3315737.119907.0769356.2471322.1202823.3818633.1296646.1343558,0,.2666475-.0382802.3963122-.1152158s.2328709-.1968426.3098065-.3602838l3.6461847-8.6181012c.0478502-.1152158.0720568-.2208615.0720568-.3169372,0-.201909-.0720568-.3698538-.2161703-.5043973s-.3171248-.201909-.5188462-.201909Z"/>
          <path class="cls-2" d="M64.8174221,40.7859753c-.4374071-.4706207-.9536262-.8380351-1.5492204-1.1024309-.5957818-.2642081-1.2491715-.3963122-1.9599814-.3963122-.7111852,0-1.3619478.1321041-1.9526632.3963122-.590903.2643958-1.105058.6318102-1.5420898,1.1024309-.4372194.4708084-.7759237,1.0209918-1.0159253,1.6501749-.2403769.6293708-.3602838,1.3092188-.3602838,2.0391688,0,.7303253.119907,1.4099857.3602838,2.0391688.2400016.6293708.5787059,1.1795542,1.0159253,1.6501749.4370318.4708084.9511868.8382228,1.5420898,1.1024309.5907153.2642081,1.241478.3963122,1.9526632.3963122.7108099,0,1.3641996-.1321041,1.9599814-.3963122.5955942-.2642081,1.1118133-.6316225,1.5492204-1.1024309.4370318-.4706207.7757361-1.0208041,1.0159253-1.6501749.2400016-.6291831.3602838-1.3088435.3602838-2.0391688,0-.72995-.1202823-1.409798-.3602838-2.0391688-.2401892-.6291831-.5788935-1.1793665-1.0159253-1.6501749ZM64.2049397,46.3919538c-.288227.5670717-.679848,1.0138611-1.1744877,1.3403683-.4950149.3266948-1.0690296.4899484-1.7222317.4899484-.6438197,0-1.2155826-.1632536-1.7149134-.4899484-.4997061-.3265072-.8888877-.7732966-1.1673571-1.3403683-.2788447-.5666964-.4178917-1.2054496-.4178917-1.9166348,0-.7205676.139047-1.3619478.4178917-1.9239531.2784694-.5620052.6676509-1.0063552,1.1673571-1.3330501.4993308-.3265072,1.0710937-.4899484,1.7149134-.4899484.653202,0,1.2272167.1634412,1.7222317.4899484.4946396.3266948.8862606.7734843,1.1744877,1.3403683s.4323406,1.2058249.4323406,1.9166348c0,.7111852-.1441135,1.3499384-.4323406,1.9166348Z"/>
          <path class="cls-2" d="M83.1365402,48.1070548h-5.5868384v-7.9406926c0-.2112914-.0744962-.3867421-.2234885-.5259768s-.3193766-.2090397-.5115279-.2090397c-.2306192,0-.4178917.069805-.5620052.2090397s-.2161703.3146854-.2161703.5259768v8.6179136c0,.2114791.0696173.3869298.208852.5259768.1392347.1394223.3146854.2090397.5261645.2090397h6.3650139c.2111038,0,.3865545-.0671779.5259768-.2017214.139047-.1345435.208852-.3026759.208852-.5043973s-.069805-.3698538-.208852-.5043973c-.1394223-.1345435-.314873-.2017214-.5259768-.2017214Z"/>
          <path class="cls-2" d="M98.7604726,39.6259365c-.1394223-.1296646-.314873-.1945908-.5259768-.1945908h-6.5427164c-.201909,0-.3747327.0626744-.5188462.1872725-.1441135.1249734-.2161703.2932935-.2161703.5043973,0,.201909.0720568.3676021.2161703.4972667s.3169372.1945908.5188462.1945908h2.4930889v7.9694027c0,.2114791.0720568.3869298.2161703.5259768.1441135.1394223.331386.2090397.5620052.2090397.2208615,0,.4058822-.0696173.5548746-.2090397.1488047-.139047.2233009-.3144977.2233009-.5259768v-7.9694027h2.4932765c.2111038,0,.3865545-.0624867.5259768-.1874602.1392347-.1245981.2090397-.2929182.2090397-.5043973,0-.2017214-.069805-.3674144-.2090397-.4970791Z"/>
        </g>
        <g>
          <path class="cls-1" d="M18.3256116,55.9376157c-.0538549,0-.0987028.0180142-.1345435.0538549s-.0536673.0806886-.0536673.1345435v3.7898878l-2.8987835-3.9043529c-.0178265-.0268336-.0425961-.0457861-.0739332-.0570449s-.0604226-.0168883-.0874439-.0168883c-.0536673,0-.0998286.0180142-.1377335.0538549-.0382802.0358407-.0572326.0851921-.0572326.1478665v4.3243439c0,.049539.0168883.0919474.0504773.1277882.033589.0360284.0795627.0538549.1377335.0538549.0538549,0,.0987028-.0178265.1345435-.0538549.0358407-.0358407.0538549-.0782491.0538549-.1277882v-3.7669713l2.8850852,3.8814364c.0180142.0223301.0414702.0392184.0707432.0502896.0290854.0112589.0592967.0168883.0908215.0168883.0536673,0,.1018928-.0189524.1444888-.0572326.0425961-.0379049.0639879-.0906339.0639879-.1579995v-4.304078c0-.0538549-.0168883-.0987028-.0504773-.1345435s-.0797503-.0538549-.1379211-.0538549Z"/>
          <path class="cls-1" d="M24.7656847,56.3344908c.0581708,0,.1075222-.0180142.1478665-.0538549s.0606102-.0829403.0606102-.1412988c0-.0581708-.020266-.1063963-.0606102-.1444888s-.0896957-.0572326-.1478665-.0572326h-3.2301695c-.0583585,0-.106584.020266-.1444888.0606102-.0382802.0403443-.0572326.0872562-.0572326.1411112v4.3042656c0,.0538549.0189524.1007669.0572326.1411112.0379049.0403443.0861303.0606102.1444888.0606102h3.2301695c.0581708,0,.1075222-.0178265.1478665-.0538549.0403443-.0358407.0606102-.0829403.0606102-.1411112,0-.0538549-.020266-.1009545-.0606102-.1412988s-.0896957-.0606102-.1478665-.0606102h-3.0081821v-1.8291909h2.7055062c.0581708,0,.1075222-.0178265.1478665-.0538549.0403443-.0358407.0606102-.0829403.0606102-.1411112,0-.0538549-.020266-.1009545-.0606102-.1412988s-.0896957-.0606102-.1478665-.0606102h-2.7055062v-1.6878921h3.0081821Z"/>
          <path class="cls-1" d="M33.5016287,55.9241051c-.0493514,0-.0919474.0112589-.1277882.0337766-.0358407.0223301-.0604226.0536673-.0739332.0940116l-1.6933573,3.8552009-.7344301-1.6732321c-.0180142-.0403443-.0437219-.0728074-.0773109-.0975769-.033589-.0245819-.072995-.0347148-.1176552-.0302113-.0450355-.0045035-.0840662.0056294-.1178428.0302113-.033589.0247695-.0570449.0572326-.0705556.0975769l-.7448094,1.6633572-1.703244-3.845326c-.013323-.0403443-.0380925-.0716815-.0739332-.0940116-.0358407-.0225177-.0763727-.0337766-.1210328-.0337766-.0493514,0-.0987028.0180142-.1480541.0538549-.0493514.0360284-.0739332.0874439-.0739332.1546218,0,.0225177.0045035.049539.0135106.0806886l1.8706611,4.3042656c.013323.0403443.0379049.0718691.0739332.0941992.0358407.0225177.0716815.033589.1075222.033589.0403443,0,.0795627-.010133.1176552-.0302113.0380925-.020266.0662397-.052729.0840662-.0975769l.7818815-1.7195342.7765336,1.7195342c.0178265.0448478.0448478.0773109.0806886.0975769.0358407.0200783.076185.0302113.1210328.0302113.0358407,0,.0716815-.0110712.1077098-.033589.0358407-.0223301.0604226-.0538549.0739332-.0941992l1.8706611-4.3042656c.0088194-.0311495.013323-.0604226.013323-.0872562,0-.0673656-.0225177-.1178428-.0671779-.1514318-.0448478-.033589-.0941992-.0504773-.1480541-.0504773Z"/>
          <path class="cls-1" d="M50.0457861,55.9376157c-.0538549,0-.0987028.0180142-.1345435.0538549s-.0536673.0806886-.0536673.1345435v3.7898878l-2.8987835-3.9043529c-.0178265-.0268336-.0425961-.0457861-.0739332-.0570449s-.0604226-.0168883-.0874439-.0168883c-.0536673,0-.0998286.0180142-.1377335.0538549-.0382802.0358407-.0572326.0851921-.0572326.1478665v4.3243439c0,.049539.0168883.0919474.0504773.1277882.033589.0360284.0795627.0538549.1377335.0538549.0538549,0,.0987028-.0178265.1345435-.0538549.0358407-.0358407.0538549-.0782491.0538549-.1277882v-3.7669713l2.8850852,3.8814364c.0180142.0223301.0414702.0392184.0707432.0502896.0290854.0112589.0592967.0168883.0908215.0168883.0536673,0,.1018928-.0189524.1444888-.0572326.0425961-.0379049.0639879-.0906339.0639879-.1579995v-4.304078c0-.0538549-.0168883-.0987028-.0504773-.1345435s-.0797503-.0538549-.1379211-.0538549Z"/>
          <path class="cls-1" d="M56.6778228,56.3344908c.0581708,0,.1075222-.0180142.1478665-.0538549s.0606102-.0829403.0606102-.1412988c0-.0581708-.020266-.1063963-.0606102-.1444888s-.0896957-.0572326-.1478665-.0572326h-3.4223209c-.0583585,0-.106584.020266-.1444888.0606102-.0382802.0403443-.0572326.0872562-.0572326.1411112v4.3042656c0,.0538549.0189524.1007669.0572326.1411112.0379049.0403443.0861303.0606102.1444888.0606102h3.4223209c.0581708,0,.1075222-.0178265.1478665-.0538549.0403443-.0358407.0606102-.0829403.0606102-.1411112,0-.0538549-.020266-.1009545-.0606102-.1412988s-.0896957-.0606102-.1478665-.0606102h-3.2003335v-1.8291909h2.8976576c.0581708,0,.1075222-.0178265.1478665-.0538549.0403443-.0358407.0606102-.0829403.0606102-.1411112,0-.0538549-.020266-.1009545-.0606102-.1412988s-.0896957-.0606102-.1478665-.0606102h-2.8976576v-1.6878921h3.2003335Z"/>
          <path class="cls-1" d="M69.457765,58.2712039h-1.277694c-.0583585,0-.1077098.0180142-.1480541.0538549-.0403443.0360284-.0604226.0851921-.0604226.1480541,0,.0536673.0200783.1007669.0604226.1411112s.0896957.0606102.1480541.0606102h1.0624619v1.3299304c-.1413809.0892265-.3044586.1627258-.4942643.2168505-.2039732.0583585-.4068205.0874439-.6085419.0874439-.3856163,0-.7286365-.0874439-1.0290606-.2623316s-.5357345-.4147017-.7061187-.7196294c-.1703842-.3047401-.2555763-.650012-.2555763-1.0356283s.0851921-.7297624.2555763-1.0322506c.1703842-.3026759.4056946-.5424898.7061187-.7196294s.6434444-.2657093,1.0290606-.2657093c.1972179,0,.3854286.0258954.5648199.0773109.1793913.0516031.345272.1176552.497642.1983437.0225177.0091947.0425961.0168883.0606102.0236436.0178265.0067553.0380925.010133.0606102.010133.0446602,0,.0883821-.0191401.1309782-.0572326s.0639879-.086318.0639879-.1446765c0-.0358407-.0078812-.0683038-.0236436-.0973892s-.0392184-.0549808-.0705556-.0773109c-.1793913-.1120257-.3788609-.196092-.5985965-.2521987s-.4482906-.0840662-.6858528-.0840662c-.3497755,0-.6715915.0604226-.9650727.1814554-.2938565.1210328-.5505587.2904788-.7701066.507775-.2197356.2174838-.3901198.474186-.5111527.7701066s-.1816431.6164231-.1816431.9616951.0606102.6657745.1816431.9616951.2914171.5526228.5111527.7701066c.2195479.2174838.4762502.3867421.7701066.507775.2934812.1210328.6152972.1814554.9650727.1814554.2598922,0,.5120909-.0392184.756596-.1176552.2443175-.0784368.4674307-.1848331.6691521-.3193766.0313372-.0223301.055919-.0493514.0739332-.0806886.0178265-.0313372.0268336-.0649261.0268336-.1009545v-1.6207142c0-.0583585-.0191401-.106584-.0570449-.1446765-.0382802-.0380925-.0885698-.0572326-.1514318-.0572326Z"/>
          <path class="cls-1" d="M72.8371145,55.9376157c-.062862,0-.1142775.020266-.1546218.0606102-.0405319.0403443-.0606102.0896957-.0606102.1478665v4.290755c0,.0583585.0178265.1075222.0538549.1478665.0358407.0403443.0874439.0606102.1546218.0606102.0538549,0,.1018928-.020266.1446765-.0606102.0424084-.0403443.066052-.089508.0705556-.1478665v-4.290755c0-.0581708-.0213919-.1075222-.0639879-.1478665s-.0906339-.0606102-.1444888-.0606102Z"/>
          <path class="cls-1" d="M79.1256852,56.3344908c.0581708,0,.1075222-.0180142.1478665-.0538549s.0606102-.0829403.0606102-.1412988c0-.0581708-.020266-.1063963-.0606102-.1444888s-.0896957-.0572326-.1478665-.0572326h-3.2301695c-.0583585,0-.106584.020266-.1444888.0606102-.0382802.0403443-.0572326.0872562-.0572326.1411112v4.3042656c0,.0538549.0189524.1007669.0572326.1411112.0379049.0403443.0861303.0606102.1444888.0606102h3.2301695c.0581708,0,.1075222-.0178265.1478665-.0538549.0403443-.0358407.0606102-.0829403.0606102-.1411112,0-.0538549-.020266-.1009545-.0606102-.1412988s-.0896957-.0606102-.1478665-.0606102h-3.0081821v-1.8291909h2.7055062c.0581708,0,.1075222-.0178265.1478665-.0538549.0403443-.0358407.0606102-.0829403.0606102-.1411112,0-.0538549-.020266-.1009545-.0606102-.1412988s-.0896957-.0606102-.1478665-.0606102h-2.7055062v-1.6878921h3.0081821Z"/>
          <path class="cls-1" d="M85.3529172,58.8968218c-.088599-.1568736-.2097619-.2869135-.3639115-.3901198-.1541496-.1030187-.3309248-.1893366-.5305369-.258954-.1996121-.0694297-.4078938-.1311658-.6250566-.1850207-.2224491-.0671779-.4319995-.1399853-.6290742-.2184221s-.3562992-.1771395-.477462-.2959206-.18185-.2724646-.18185-.4606754c0-.1748878.0541321-.3229419.1628192-.4439747s.2577618-.2141062.4472242-.2790323.402819-.0975769.6402813-.0975769c.1717003,0,.3372684.020266.4964929.0606102s.3042816.0973892.4358057.1715101c.1313126.0739332.2397883.1579995.3258499.2521987.0353127.0313372.0782378.0470996.1287752.0470996.0606872,0,.1162994-.0213919.1668368-.0639879.0503259-.0425961.0757004-.0883821.0757004-.1379211,0-.0581708-.0378502-.1232846-.113762-.1949661-.1617619-.1748878-.3801934-.3069918-.6555059-.3968751-.2753125-.089508-.5620435-.1343558-.8601929-.1343558-.343612,0-.6453561.052729-.905444.1579995-.2602993.1054581-.4611801.2510728-.6026425.4370318-.1414624.1861466-.2120879.398001-.2120879.6355632,0,.2064126.0403876.3833645.1211629.5314186.0807752.1478665.1932685.272277.3372684.3732315.1439998.1007669.3108367.1861466.500299.2555763s.3875943.1334176.5948187.1915884c.2524755.062862.4823255.1367953.6895499.2219874s.3725811.1906502.4964929.3159989c.1237003.125724.1881936.2916047.1932685.4978297,0,.1658807-.0556123.3114954-.1668368.4370318-.1110131.1255364-.2613565.2219874-.4508189.2891653-.1894624.0673656-.4055678.1009545-.6478936.1009545-.2879997,0-.55718-.0493514-.8071181-.1480541-.2501495-.0985151-.4736559-.2420657-.6707306-.4302764-.0505374-.0448478-.1061497-.0673656-.1668368-.0673656-.0604757,0-.1148193.0225177-.1628192.0673656-.0482114.0448478-.0721056.0940116-.0721056.1478665,0,.0360284.008881.0671779.0266431.0941992.0175506.0268336.0389074.0516031.0642819.0739332.2577618.2242391.5279994.3912457.8109242.5010197s.616387.162503,1.0003866.1579995c.343612-.0045035.6428187-.0604226.8980431-.1681324.2550129-.1075222.4558938-.2531369.6024311-.4370318s.2199117-.3901198.2199117-.6186748c0-.2377498-.0444052-.4349676-.1325814-.5918412Z"/>
        </g>
        <path class="cls-1" d="M44.0844143,56.0634453c-.0063214-.015997-.0177327-.0294724-.0284169-.0432997-.0053245-.0071189-.007975-.0151643-.0143785-.0219196-.0005864-.0006216-.0014074-.0007858-.0019938-.0013956-.0006099-.0005864-.0007623-.0013956-.0013839-.001982-.0045739-.0043159-.0104379-.0058992-.0152464-.0097342-.0349846-.0295545-.075927-.0474984-.1258648-.0474984h-3.2369248c-.0499378,0-.0908802.0179438-.1258648.0474984-.0048085.0038351-.0106725.0054183-.0152464.0097342-.0006216.0005864-.000774.0013956-.0013839.001982-.0005864.0006099-.0014074.000774-.0019938.0013956-.0064035.0067553-.009054.0148007-.0143785.0219196-.0106842.0138273-.0220955.0273028-.0284169.0432997-.0096052.023585-.0144372.0488588-.0144372.0758918,0,.0583585.020266.1054581.0606102.1412988s.0896957.0538549.1478665.0538549h.2086644l.0065677.0030727v-.0030727h2.7929501v.0030727l.0065677-.0030727h.2086644c.0581708,0,.1075222-.0180142.1478665-.0538549s.0606102-.0829403.0606102-.1412988c0-.027033-.0048319-.0523068-.0144372-.0758918Z"/>
        <path class="cls-1" d="M44.0844143,58.1567386c-.0063214-.015997-.0177327-.0294724-.0284169-.0432997-.0053245-.0071189-.007975-.0151643-.0143785-.0219196-.0005864-.0006216-.0014074-.0007858-.0019938-.0013956-.0006099-.0005864-.0007623-.0013956-.0013839-.001982-.0045739-.0043159-.0104379-.0058992-.0152464-.0097342-.0349846-.0295545-.075927-.0474984-.1258648-.0474984h-3.2369248c-.0499378,0-.0908802.0179438-.1258648.0474984-.0048085.0038351-.0106725.0054183-.0152464.0097342-.0006216.0005864-.000774.0013956-.0013839.001982-.0005864.0006099-.0014074.000774-.0019938.0013956-.0064035.0067553-.009054.0148007-.0143785.0219196-.0106842.0138273-.0220955.0273028-.0284169.0432997-.0096052.023585-.0144372.0488588-.0144372.0758918,0,.0583585.020266.1054581.0606102.1412988s.0896957.0538549.1478665.0538549h.2086644l.0065677.0030727v-.0030727h2.7929501v.0030727l.0065677-.0030727h.2086644c.0581708,0,.1075222-.0180142.1478665-.0538549s.0606102-.0829403.0606102-.1412988c0-.027033-.0048319-.0523068-.0144372-.0758918Z"/>
        <path class="cls-1" d="M44.0988515,60.4436027l-.0015012-.0007037c-.0018999-.0505711-.0207585-.0954893-.0591091-.1338398-.0403443-.0403443-.0896957-.0606102-.1478665-.0606102h-.2043133l-.0109188-.0051603v.0051603h-2.7929501v-.0051603l-.0109188.0051603h-.2043133c-.0581708,0-.1075222.020266-.1478665.0606102-.0383505.0383505-.0572091.0832687-.0591091.1338398l-.0015012.0007037c0,.0012432.0006333.0022518.0006568.0034832-.0000235.0011611-.0006568.002111-.0006568.0032721,0,.0581708.020266.1052704.0606102.1411112.0128421.01147.0281589.0179556.0428189.0257429.0077405.0044332.0146131.0105552.0229517.0138038.0084559.0031548.0184716.0031314.0274552.005219.0156569.0036357.0303989.0090892.0478854.0090892h3.2369248c.0174864,0,.0322285-.0054535.0478854-.0090892.0089836-.0020876.0189993-.0020641.0274552-.005219.0083386-.0032487.0152112-.0093707.0229517-.0138038.01466-.0077874.0299767-.014273.0428189-.0257429.0403443-.0358407.0606102-.0829403.0606102-.1411112,0-.0011611-.0006333-.002111-.0006568-.0032721.0000235-.0012314.0006568-.00224.0006568-.0034832Z"/>
      </g>
      <path class="cls-1" d="M62.8675537,60.348999l-1.6422729-1.7077637h.0814209s.0078735-.0014038.0090942-.0015869h.0918579c.2556152,0,.4841309-.0595093.6860352-.1782837.2017212-.1190186.3597412-.2827148.473999-.491272.114502-.2088013.1715088-.4465942.1715088-.7134399,0-.0078125-.0037842-.0136719-.0039062-.0214233.0001221-.0071411.0039062-.0125732.0039062-.0197754,0-.1727905-.0383911-.3275757-.0945435-.4740601-.0075684-.0219116-.0042725-.0493164-.0129395-.0706787h-.0164185c-.0172119-.0375366-.0264282-.0787964-.0476074-.1144409-.1142578-.192688-.2722778-.3439331-.473999-.4539185-.2019043-.1098022-.4304199-.1647339-.6860352-.1647339h-1.8158569c-.0583496,0-.1065674.0202637-.1444702.0606079-.0375366.0394897-.0559082.0855103-.0566406.1380005h-.0006104c0,.0005493.0003052.0009766.0003052.0015259s-.0003052.0009766-.0003052.0015869l.0007935.0007935c.0021362.1038208.0836792.1863403.1864624.1925049l.00177.0018311h.0073853c.0007935,0,.0014648.0004883.0022583.0004883s.0014648-.0004883.0022583-.0004883h1.7830811c.2778931,0,.5032959.0840454.6759033.2521973.1637573.159729.2442017.3618164.2524414.6002197.0006714.0167236.0049438.031311.0050659.0483398-.0002441.0236206-.0061646.0441284-.0075684.0670776-.0041504.0928955-.0200195.1794434-.0446167.2611084-.0126953.0421753-.0289307.0824585-.0466919.1218262-.0223999.0482788-.0544434.0913086-.085083.1351318-.0456543.069519-.102478.1226807-.1593628.1756592-.1608276.1333618-.3521118.2141113-.5900879.2141113h-1.7830811c-.0007935,0-.0014648-.0004883-.0022583-.0004883s-.0014648.0004883-.0022583.0004883h-.0073853l-.00177.0020142c-.0980835.0063477-.1725464.0900269-.1813965.1951904l-.0058594.0020142v2.0342407c0,.053833.0212402.100769.0637817.1411133.0426025.0403442.0975952.0606079.164978.0606079.0581665,0,.1052856-.0202637.1411133-.0606079s.053833-.0872803.053833-.1411133v-1.8023682h.8236084l1.9248047,2.0014648c.0404053.0420532.0873413.0651245.1412964.0692749.053772.0042114.1050415-.0169678.1534424-.0635376.0388184-.0372925.0593872-.0852051.0622559-.1439209.0026245-.0584717-.0144043-.1103516-.0516357-.1555176Z"/>
    </g>
  </g>
</svg>