<svg xmlns="http://www.w3.org/2000/svg" width="195.76" height="52.327" viewBox="0 0 195.76 52.327">
  <g id="logo_new_white" transform="translate(-453.9 -12.1)">
    <path id="Path_56" data-name="Path 56" d="M598,93.1h5.022c2.2.049,3.765.658,4.709,1.791s1.231,2.9.859,5.219a8.463,8.463,0,0,1-2.529,5.224,7.919,7.919,0,0,1-5.291,1.79H595.75Zm-.68,12.936h2.972a10.425,10.425,0,0,0,2.757-.327,5.054,5.054,0,0,0,3.406-2.869,10.214,10.214,0,0,0,.779-2.686,9.006,9.006,0,0,0,.085-2.686,3.5,3.5,0,0,0-.788-1.831,3.531,3.531,0,0,0-1.7-1.034,9.311,9.311,0,0,0-2.65-.327h-2.963Z" transform="translate(-78.354 -44.742)" fill="#21365d"/>
    <path id="Path_57" data-name="Path 57" d="M627.638,97.017h1.285l-1.625,10.17H626Zm.622-3.917h1.276l-.322,1.987h-1.285Z" transform="translate(-95.064 -44.742)" fill="#21365d"/>
    <path id="Path_58" data-name="Path 58" d="M635.688,106.943a4.745,4.745,0,0,0-.022,1.4,3.58,3.58,0,0,0,.407,1.28,2.556,2.556,0,0,0,.922.944,2.789,2.789,0,0,0,1.522.376,3.653,3.653,0,0,0,2.319-.721,4.664,4.664,0,0,0,1.4-1.88h1.285a6.155,6.155,0,0,1-1.925,2.686,5.2,5.2,0,0,1-3.245.953,4.476,4.476,0,0,1-2.1-.448,3.169,3.169,0,0,1-1.28-1.173,4.185,4.185,0,0,1-.573-1.714,7.219,7.219,0,0,1,.054-2.059,7.583,7.583,0,0,1,.6-1.97,6.267,6.267,0,0,1,1.124-1.723,5.371,5.371,0,0,1,1.661-1.222,5.2,5.2,0,0,1,2.238-.448,4.029,4.029,0,0,1,2.086.492,3.442,3.442,0,0,1,1.253,1.294,4.592,4.592,0,0,1,.51,1.831,7.857,7.857,0,0,1-.13,2.1Zm6.965-1.043a4.36,4.36,0,0,0-.036-1.343,3.174,3.174,0,0,0-.479-1.15,2.632,2.632,0,0,0-.9-.81,2.8,2.8,0,0,0-1.343-.3,3.469,3.469,0,0,0-1.459.3,4.13,4.13,0,0,0-1.159.765,4.678,4.678,0,0,0-.868,1.159,6.166,6.166,0,0,0-.555,1.343Z" transform="translate(-99.676 -49.23)" fill="#21365d"/>
    <path id="Path_59" data-name="Path 59" d="M659.456,93.1h1.285L658.5,107.169h-1.3Z" transform="translate(-112.298 -44.742)" fill="#21365d"/>
    <path id="Path_60" data-name="Path 60" d="M666.917,106.921a4.9,4.9,0,0,0,0,1.4,3.432,3.432,0,0,0,.407,1.28,2.556,2.556,0,0,0,.922.944,2.766,2.766,0,0,0,1.518.376,3.648,3.648,0,0,0,2.323-.721,4.7,4.7,0,0,0,1.4-1.88h1.285a6.2,6.2,0,0,1-1.929,2.686,5.193,5.193,0,0,1-3.245.953,4.476,4.476,0,0,1-2.095-.448,3.169,3.169,0,0,1-1.271-1.191,4.252,4.252,0,0,1-.573-1.714,7.217,7.217,0,0,1,.054-2.059,7.754,7.754,0,0,1,.591-1.97,6.358,6.358,0,0,1,1.124-1.723,5.345,5.345,0,0,1,1.665-1.222,5.2,5.2,0,0,1,2.238-.448,4.028,4.028,0,0,1,2.086.492,3.434,3.434,0,0,1,1.249,1.294,4.581,4.581,0,0,1,.483,1.831,7.859,7.859,0,0,1-.134,2.1Zm6.983-1.043a4.227,4.227,0,0,0-.04-1.343,3,3,0,0,0-.479-1.15,2.507,2.507,0,0,0-.9-.81,2.8,2.8,0,0,0-1.343-.3,3.469,3.469,0,0,0-1.459.3,4.1,4.1,0,0,0-1.173.81,5.1,5.1,0,0,0-.868,1.159,6.149,6.149,0,0,0-.551,1.343Z" transform="translate(-116.943 -49.208)" fill="#21365d"/>
    <path id="Path_61" data-name="Path 61" d="M697.164,104.685a2.811,2.811,0,0,0-.7-1.79,2.48,2.48,0,0,0-1.885-.649,3.658,3.658,0,0,0-1.67.372,4.374,4.374,0,0,0-1.316.985,5.556,5.556,0,0,0-.9,1.392,6.013,6.013,0,0,0-.488,1.585,4.982,4.982,0,0,0,0,1.589,3.648,3.648,0,0,0,.47,1.388,2.757,2.757,0,0,0,.994.985,2.99,2.99,0,0,0,1.553.376,3.2,3.2,0,0,0,1.155-.215,3.963,3.963,0,0,0,1.039-.6,4.213,4.213,0,0,0,.819-.9,3.763,3.763,0,0,0,.51-1.164h1.289a5.694,5.694,0,0,1-1.885,2.9,4.861,4.861,0,0,1-3.1,1.043,4.431,4.431,0,0,1-2.059-.448,3.617,3.617,0,0,1-1.379-1.164,4.127,4.127,0,0,1-.685-1.7,6.265,6.265,0,0,1,0-2.081,7.068,7.068,0,0,1,.662-2.068,5.966,5.966,0,0,1,1.231-1.714,5.9,5.9,0,0,1,1.746-1.164,5.475,5.475,0,0,1,2.2-.448,4.1,4.1,0,0,1,2.731.868,3.092,3.092,0,0,1,.976,2.623Z" transform="translate(-129.778 -49.21)" fill="#21365d"/>
    <path id="Path_62" data-name="Path 62" d="M715.652,98.066H717.8l-.166,1.047h-2.144l-1.106,6.858a2.018,2.018,0,0,0,0,.953c.081.233.349.358.806.385a10.324,10.324,0,0,0,1.115-.058l-.17,1.065h-1.15a2.239,2.239,0,0,1-1.714-.492,2.212,2.212,0,0,1-.206-1.79l1.115-6.956H712.34l.166-1.047h1.875l.492-3.03h1.289Z" transform="translate(-142.756 -45.792)" fill="#21365d"/>
    <path id="Path_63" data-name="Path 63" d="M726.231,101.67h1.2l-.38,2.386h.04a4.9,4.9,0,0,1,1.826-1.911,4.557,4.557,0,0,1,2.542-.613l-.2,1.244a4.257,4.257,0,0,0-1.625.224,4.529,4.529,0,0,0-1.343.761,4.355,4.355,0,0,0-1,1.182,4.252,4.252,0,0,0-.519,1.477l-.868,5.421H724.62Z" transform="translate(-149.539 -49.396)" fill="#21365d"/>
    <path id="Path_64" data-name="Path 64" d="M740.137,97.039H741.4l-1.625,10.17H738.49Zm.627-3.9h1.285l-.318,1.987h-1.267Z" transform="translate(-157.2 -44.764)" fill="#21365d"/>
    <path id="Path_65" data-name="Path 65" d="M755.294,104.7a2.811,2.811,0,0,0-.7-1.79,2.5,2.5,0,0,0-1.884-.649,3.72,3.72,0,0,0-1.674.372,4.432,4.432,0,0,0-1.311.985,5.437,5.437,0,0,0-.9,1.392,6.022,6.022,0,0,0-.492,1.585,5.254,5.254,0,0,0,0,1.589,3.835,3.835,0,0,0,.448,1.388,2.771,2.771,0,0,0,1,.985,2.99,2.99,0,0,0,1.553.376,3.2,3.2,0,0,0,1.155-.215,3.939,3.939,0,0,0,1.034-.6,4.03,4.03,0,0,0,.824-.9,3.765,3.765,0,0,0,.51-1.164h1.289a5.738,5.738,0,0,1-1.862,2.914,4.861,4.861,0,0,1-3.1,1.043,4.476,4.476,0,0,1-2.064-.448,3.644,3.644,0,0,1-1.374-1.164,4.127,4.127,0,0,1-.685-1.7,6.264,6.264,0,0,1,0-2.081,7.2,7.2,0,0,1,.658-2.068,6.07,6.07,0,0,1,1.235-1.714,5.9,5.9,0,0,1,1.746-1.164,5.474,5.474,0,0,1,2.2-.448,4.145,4.145,0,0,1,2.731.868,3.092,3.092,0,0,1,.976,2.623Z" transform="translate(-161.888 -49.228)" fill="#21365d"/>
    <path id="Path_66" data-name="Path 66" d="M784.669,93.1h9.248l-.183,1.141h-7.86l-.81,5.125h6.961l-.183,1.141h-6.979l-1.074,6.714H782.4Z" transform="translate(-181.455 -44.742)" fill="#21365d"/>
    <path id="Path_67" data-name="Path 67" d="M808.238,93.1h1.3L807.3,107.169H806Z" transform="translate(-194.491 -44.742)" fill="#21365d"/>
    <path id="Path_68" data-name="Path 68" d="M823.022,112.02H821.84l.291-1.831H822.1a4.615,4.615,0,0,1-1.768,1.576,4.758,4.758,0,0,1-2.238.551,4.476,4.476,0,0,1-1.665-.264,2.238,2.238,0,0,1-1.016-.77,2.564,2.564,0,0,1-.448-1.222,5.689,5.689,0,0,1,.054-1.607l1.056-6.6h1.285l-1.056,6.625a2.878,2.878,0,0,0,.331,2.086,2.375,2.375,0,0,0,2.037.712,3.133,3.133,0,0,0,1.473-.345,3.679,3.679,0,0,0,1.137-.9,4.994,4.994,0,0,0,.783-1.312,7.267,7.267,0,0,0,.448-1.5l.855-5.345h1.285Z" transform="translate(-199.427 -49.576)" fill="#21365d"/>
    <path id="Path_69" data-name="Path 69" d="M839.616,97.017H840.9l-1.629,10.17H838Zm.622-3.917h1.3l-.322,1.987h-1.285Z" transform="translate(-212.167 -44.742)" fill="#21365d"/>
    <path id="Path_70" data-name="Path 70" d="M855.518,107.2h-1.164l.309-1.929h-.04a3.7,3.7,0,0,1-.752.9,5.151,5.151,0,0,1-1.021.712,5.483,5.483,0,0,1-1.164.448,4.775,4.775,0,0,1-1.177.157,4.275,4.275,0,0,1-2.023-.448,3.321,3.321,0,0,1-1.289-1.173,4.065,4.065,0,0,1-.6-1.714,7.054,7.054,0,0,1,.045-2.059,7.737,7.737,0,0,1,.613-2.059,5.988,5.988,0,0,1,1.155-1.714,5.372,5.372,0,0,1,1.665-1.173,5.273,5.273,0,0,1,2.162-.448,4.36,4.36,0,0,1,1.128.148,4.069,4.069,0,0,1,.985.448,2.921,2.921,0,0,1,.756.689,2.471,2.471,0,0,1,.448.967h.04l.936-5.819h1.285Zm-7.61-5.085a6.331,6.331,0,0,0-.058,1.567,3.523,3.523,0,0,0,.389,1.392,2.588,2.588,0,0,0,.9.994,2.686,2.686,0,0,0,1.508.385,3.939,3.939,0,0,0,1.791-.385,4.273,4.273,0,0,0,1.3-.994,4.923,4.923,0,0,0,.855-1.392,7.292,7.292,0,0,0,.448-1.567,6.122,6.122,0,0,0,.054-1.567,3.581,3.581,0,0,0-.407-1.388,2.771,2.771,0,0,0-.985-1,3.25,3.25,0,0,0-1.661-.38,3.389,3.389,0,0,0-1.634.38,4.155,4.155,0,0,0-1.231,1,5.288,5.288,0,0,0-.837,1.388,6.845,6.845,0,0,0-.448,1.567Z" transform="translate(-216.883 -44.759)" fill="#21365d"/>
    <path id="Path_71" data-name="Path 71" d="M878.942,104.44a2.081,2.081,0,0,0-.085-.994,1.678,1.678,0,0,0-.488-.7,2.184,2.184,0,0,0-.8-.4,3.934,3.934,0,0,0-1.021-.125,4.248,4.248,0,0,0-.9.09,3.326,3.326,0,0,0-.855.291,2.305,2.305,0,0,0-.68.546,1.657,1.657,0,0,0-.354.828.971.971,0,0,0,.1.7,1.49,1.49,0,0,0,.448.483,2.926,2.926,0,0,0,.662.322,5.7,5.7,0,0,0,.68.206l1.656.376a4.449,4.449,0,0,1,1.043.286,2.959,2.959,0,0,1,.9.542,2.206,2.206,0,0,1,.551.828,2.332,2.332,0,0,1,.076,1.164,2.865,2.865,0,0,1-.613,1.406,4.029,4.029,0,0,1-1.141.949,5.227,5.227,0,0,1-1.441.533,7.229,7.229,0,0,1-1.517.166,4.347,4.347,0,0,1-2.874-.855,3.12,3.12,0,0,1-.9-2.731h1.285a2.054,2.054,0,0,0,.645,1.9,3.071,3.071,0,0,0,2.05.64,5.118,5.118,0,0,0,.976-.1,3.943,3.943,0,0,0,.994-.336,2.914,2.914,0,0,0,.8-.6,1.764,1.764,0,0,0,.416-.9,1.294,1.294,0,0,0-.072-.748,1.344,1.344,0,0,0-.448-.524,3.1,3.1,0,0,0-.689-.345c-.269-.09-.537-.17-.81-.233l-1.594-.358a7.984,7.984,0,0,1-1.106-.363,2.977,2.977,0,0,1-.842-.515,1.692,1.692,0,0,1-.492-.761,2.333,2.333,0,0,1-.049-1.1,2.767,2.767,0,0,1,.573-1.316,3.447,3.447,0,0,1,1.07-.9,5.262,5.262,0,0,1,1.343-.5,6.9,6.9,0,0,1,1.423-.157,5.1,5.1,0,0,1,1.446.2,2.882,2.882,0,0,1,1.11.613,2.434,2.434,0,0,1,.694,1.034,3.325,3.325,0,0,1,.116,1.437Z" transform="translate(-230.607 -49.189)" fill="#21365d"/>
    <path id="Path_72" data-name="Path 72" d="M466.765,12.1l-2.426,11.441h12.086L478.833,12.1h6.6l-6.307,29.816h-6.6l2.713-12.851H463.152l-2.686,12.86H453.9l6.267-29.816Z" transform="translate(0 0)" fill="#21365d"/>
    <path id="Path_73" data-name="Path 73" d="M524.8,57.351a6.268,6.268,0,0,1-1.755,1.4,7.037,7.037,0,0,1-2.193.689,19.7,19.7,0,0,1-2.9.188,14.741,14.741,0,0,1-1.544-.085c-.533-.054-1.061-.1-1.589-.125l1-4.924a6.268,6.268,0,0,1,1.191.125,5.573,5.573,0,0,0,1.191.125,3.7,3.7,0,0,0,1.67-.313,3.371,3.371,0,0,0,1.021-.752,5.042,5.042,0,0,0,.676-.944,6.019,6.019,0,0,1,.564-.9l-3.85-21.361h6.1l1.88,15.452h.085l7.475-15.452h6.267L526.351,55.1A12.563,12.563,0,0,1,524.8,57.351Z" transform="translate(-33.651 -10.153)" fill="#21365d"/>
    <path id="Path_74" data-name="Path 74" d="M576.3,41.916,572.9,12.1h6.535l1.97,22.381h.085L592.8,12.1h6.808L583.688,41.916Z" transform="translate(-65.733)" fill="#21365d"/>
    <path id="Path_75" data-name="Path 75" d="M616.556,37.418a12.748,12.748,0,0,1,2.462-4.279,11.638,11.638,0,0,1,3.908-2.905,12.189,12.189,0,0,1,5.175-1.065,13.943,13.943,0,0,1,4.073.564,8.907,8.907,0,0,1,3.2,1.692,7.569,7.569,0,0,1,2.068,2.838,10.462,10.462,0,0,1,.747,4.051,16.427,16.427,0,0,1-.85,5.327,12.744,12.744,0,0,1-2.484,4.32,11.58,11.58,0,0,1-3.948,2.883,12.7,12.7,0,0,1-5.282,1.043,10.683,10.683,0,0,1-7.207-2.314q-2.695-2.314-2.686-6.956a15.432,15.432,0,0,1,.828-5.2Zm5.345,7.037A4.417,4.417,0,0,0,622.716,46a3.992,3.992,0,0,0,1.343,1.065,4.078,4.078,0,0,0,1.84.394,4.6,4.6,0,0,0,2.86-.9,7.41,7.41,0,0,0,1.961-2.238,11.2,11.2,0,0,0,1.15-2.945,13.236,13.236,0,0,0,.376-2.963,5.626,5.626,0,0,0-.989-3.46,3.977,3.977,0,0,0-3.362-1.294,4.521,4.521,0,0,0-2.82.9,7.162,7.162,0,0,0-1.943,2.238A11.151,11.151,0,0,0,622,39.7a12.536,12.536,0,0,0-.376,2.941,6.221,6.221,0,0,0,.273,1.813Z" transform="translate(-89.389 -9.427)" fill="#21365d"/>
    <path id="Path_76" data-name="Path 76" d="M678.558,12.1l-6.347,29.816H666.32L672.627,12.1Z" transform="translate(-117.335 0)" fill="#21365d"/>
    <path id="Path_77" data-name="Path 77" d="M705.849,22.393l-.922,3.966h-4.217L698.5,37.1a5.792,5.792,0,0,0-.125.6,3,3,0,0,0-.045.4,1.733,1.733,0,0,0,.188.9,1.316,1.316,0,0,0,.5.483,1.414,1.414,0,0,0,.645.188h.689a17.844,17.844,0,0,0,2.131-.125l-1.021,4.566c-.613.058-1.227.107-1.835.148s-1.24.063-1.88.063a11.428,11.428,0,0,1-2.068-.188,5.582,5.582,0,0,1-1.835-.667,3.554,3.554,0,0,1-1.3-1.316,4.056,4.056,0,0,1-.448-2.171,6.066,6.066,0,0,1,.085-.94c.054-.349.125-.716.21-1.11l2.422-11.567H690.93l.9-3.966h3.8l1.343-6.558H702.9L701.557,22.4Z" transform="translate(-130.929 -2.066)" fill="#21365d"/>
    <path id="Path_78" data-name="Path 78" d="M573.079,89.31h2.686l-3.679,17.766H569.4Z" transform="translate(-63.799 -42.649)" fill="#21365d"/>
  </g>
</svg>
