<?xml version="1.0" encoding="UTF-8"?>
<svg xmlns="http://www.w3.org/2000/svg" version="1.1" viewBox="0 0 566.9291339 660.4724409">
  <defs>
    <style>
      .cls-1 {
        fill: #fff;
      }

      .cls-2 {
        fill: #00b0e3;
      }

      .cls-3 {
        fill: none;
      }

      .cls-4, .cls-5 {
        fill: #00779c;
      }

      .cls-5 {
        fill-rule: evenodd;
      }
    </style>
  </defs>
  <!-- Generator: Adobe Illustrator 28.7.1, SVG Export Plug-In . SVG Version: 1.2.0 Build 142)  -->
  <g>
    <g id="Achtergrond">
      <rect class="cls-3" width="566.9291339" height="660.4724409"/>
    </g>
    <g id="RAI_Logo">
      <g>
        <g>
          <path class="cls-1" d="M422.3238987,283.4645669c0,76.6898913-62.1694405,138.8593318-138.8593318,138.8593318s-138.8593318-62.1694405-138.8593318-138.8593318,62.1694405-138.8593318,138.8593318-138.8593318,138.8593318,62.1694405,138.8593318,138.8593318Z"/>
          <path class="cls-2" d="M418.9037181,283.4645669c0,74.8009777-60.6381735,135.4391512-135.4391512,135.4391512s-135.4391512-60.6381735-135.4391512-135.4391512,60.6381735-135.4391512,135.4391512-135.4391512,135.4391512,60.6381735,135.4391512,135.4391512ZM283.4645669,141.7322835c-78.2765787,0-141.7322835,63.4557048-141.7322835,141.7322835s63.4557048,141.7322835,141.7322835,141.7322835,141.7322835-63.4557048,141.7322835-141.7322835-63.4557048-141.7322835-141.7322835-141.7322835Z"/>
          <path class="cls-5" d="M403.1708312,283.4646838c0,66.1118175-53.594213,119.7061474-119.7061474,119.7061474-66.1120513,0-119.7063812-53.5943299-119.7063812-119.7061474,0-66.1120513,53.5943299-119.7063812,119.7063812-119.7063812,66.1119344,0,119.7061474,53.5943299,119.7061474,119.7063812ZM246.4606602,286.6379519l9.0209308-17.9070752c-4.4363796-5.1535651-7.7346145-7.1644901-11.5995838-7.1644901-4.7327812,0-9.7430261,3.2927406-15.759961,10.7497161l-.2854714-.2913749,1.4275323-9.3166895h-19.3394588l-9.1663552,65.045216h19.336887l5.4477456-38.6789177c2.1477572-4.2938193,7.162795-9.4524696,11.7465279-9.4524696,3.1494204,0,5.873147,2.1494522,9.1712066,7.0160847ZM272.5660948,302.1175267c0,7.8674137,3.5818359,12.4568162,9.45434,12.4568162,4.4416401,0,9.4552167-2.0041447,13.8995456-5.7323402l4.2955143-30.9413806c-24.067564-2.4334039-27.6493999,16.1839596-27.6493999,24.2169046ZM312.5354787,327.7532545h-19.3402771l.8589275-6.0158827c-6.3022309,5.0134012-12.0336943,7.3030173-18.7643076,7.3030173-13.1814834,0-22.776864-11.6037922-22.776864-27.9321241,0-18.9146419,12.0294275-39.5418782,47.1307761-39.5418782,8.1661533,0,13.8934083.5766124,21.9168843,2.1494522l-9.0251392,64.0374155ZM356.5216858,262.7080384h-19.3419137l-9.168927,65.045216h19.3394004l9.1714404-65.045216ZM359.0967733,244.6643649c0-5.5853961-4.4450303-10.0269778-10.028556-10.0269778-5.5844609,0-10.032063,4.4415817-10.032063,10.0269778,0,5.5868574,4.4476021,10.0244644,10.032063,10.0244644,5.5835257,0,10.028556-4.4376071,10.028556-10.0244644ZM308.0898671,222.9957786v-.0000089c0-2.4555852-1.9906451-4.4462303-4.4462303-4.4462303h-40.3581398c-2.4555852,0-4.4462303,1.9906451-4.4462303,4.4462303v.0000089c0,2.4555852,1.9906451,4.4462303,4.4462303,4.4462303h40.3581398c2.4555852,0,4.4462303-1.9906451,4.4462303-4.4462303ZM289.2788739,202.6114979c0,3.2111531-2.6031539,5.814307-5.814307,5.814307s-5.814307-2.6031539-5.814307-5.814307,2.6031539-5.814307,5.814307-5.814307,5.814307,2.6031539,5.814307,5.814307ZM303.9765385,205.20441c-.6264649,3.1494517-3.6874501,5.1947366-6.8369017,4.5682717-3.1494517-.6264649-5.1947366-3.6874501-4.5682717-6.8369017s3.6874501-5.1947366,6.8369017-4.5682717c3.1494517.6264649,5.1947366,3.6874501,4.5682717,6.8369017ZM317.8859396,210.6148722c-1.2288551,2.9667186-4.6300396,4.3755354-7.5967582,3.1466803s-4.3755354-4.6300396-3.1466803-7.5967582c1.2288551-2.9667186,4.6300396-4.3755354,7.5967582-3.1466803s4.3755354,4.6300396,3.1466803,7.5967582ZM274.3577688,202.93578c.6264649,3.1494517-1.41882,6.2104369-4.5682717,6.8369017-3.1494517.6264649-6.2104369-1.41882-6.8369017-4.5682717-.6264649-3.1494517,1.41882-6.2104369,4.5682717-6.8369017,3.1494517-.6264649,6.2104369,1.41882,6.8369017,4.5682717ZM259.7866327,206.1647943c1.2288551,2.9667186-.1799617,6.3679031-3.1466803,7.5967582-2.9667186,1.2288551-6.3679031-.1799617-7.5967582-3.1466803-1.2288551-2.9667186.1799617-6.3679031,3.1466803-7.5967582,2.9667186-1.2288551,6.3679031.1799617,7.5967582,3.1466803Z"/>
        </g>
        <path class="cls-4" d="M150.5142484,472.4108768h7.8190857l-13.2200678,47.2139379h-6.0648765l-13.1911579-47.2139379h7.7912083l8.4076079,33.1627115,8.4582002-33.1627115ZM171.1011871,498.7787378h14.356845v-6.9776022h-14.356845v-12.4126566h16.4476476v-6.9776022h-23.6637562v47.2139379h23.9425299v-6.9776022h-16.7264213v-13.8684748ZM218.8490517,494.8273788c1.1832394-2.2208971,1.7831191-4.8434347,1.7831191-7.7922408,0-4.685463-1.1212897-8.3239758-3.3328943-10.8153866-2.2446444-2.5275481-5.5496614-3.8088746-9.8231588-3.8088746h-12.4312415v47.2139379h7.2439859v-18.2441892h5.3607148l7.2202385,18.2441892h7.8423236l-8.1634296-20.1450127c1.8109965-1.1285172,3.2544247-2.6906823,4.3003423-4.6524231ZM211.7238028,492.4877449c-1.0727625,1.2885539-2.4800533,1.9152785-4.3034398,1.9152785h-5.1315009v-15.0145444h5.0757461c2.5853678,0,6.0235767.7908913,6.0235767,7.6311716,0,2.2993667-.5606449,4.139273-1.6643822,5.4680943ZM235.489924,498.7787378h14.356845v-6.9776022h-14.356845v-12.4126566h16.4476476v-6.9776022h-23.6637562v47.2139379h23.9425299v-6.9776022h-16.7264213v-13.8684748ZM280.8713098,503.6159775l-14.5777989-31.2051007h-6.8598977v47.2139379h7.2439859v-31.0543564l14.5220442,31.0543564h6.8598977v-47.2139379h-7.1882312v31.2051007ZM297.4281097,519.6248147h7.2161085v-47.2139379h-7.2161085v47.2139379ZM322.7224111,481.4575992c1.159492-1.8089315,2.965326-2.6886174,5.521784-2.6886174,2.1042251,0,3.611668.638082,4.6080258,1.9514158,1.065535,1.4041934,1.7025845,3.4299489,1.8935961,6.0204792l.0722747.9798379h7.1944262l-.0557547-1.1099323c-.2354089-4.671008-1.5425477-8.3373983-3.8863117-10.8990187-2.3829988-2.6008553-5.6983407-3.9203841-9.8531011-3.9203841-4.8733771,0-8.599652,1.7366568-11.0745429,5.1614432-2.3995187,3.3174069-3.615798,8.3043584-3.615798,14.8214678v8.8691333c.0578197,6.1134037,1.4217458,10.9382535,4.0535759,14.3434225,2.6999748,3.4888011,6.4561921,5.2574653,11.1654025,5.2574653,5.2657252,0,9.3358211-1.816159,12.1204605-5.4267945l1.0913474-1.5157029v-18.2483191h-14.6325212v6.9776022h7.4174451v8.8711983l-.4563629.4666878c-1.2183443,1.2596441-3.0727055,1.8977261-5.5114591,1.8977261-2.5574905,0-4.464509-1.0314626-5.8305001-3.1542727-1.4423957-2.241547-2.1734023-5.5661813-2.1734023-9.882011v-9.1871418c.0526573-4.4232092.7093242-7.648724,1.9514158-9.5856849ZM351.3810866,519.6248147h7.2150761v-47.2139379h-7.2150761v47.2139379ZM389.4013955,503.614945l-14.5767664-31.2040682h-6.8598977v47.2139379h7.2439859v-31.0543564l14.5210117,31.0543564h6.8598977v-47.2139379h-7.1882312v31.2040682ZM419.2706829,502.0310975h7.4174451v8.8711983l-.4563629.4666878c-1.2183443,1.2596441-3.0727055,1.8977261-5.5114591,1.8977261-2.5574905,0-4.464509-1.0314626-5.8305001-3.1542727-1.4423957-2.241547-2.1734023-5.5661813-2.1734023-9.882011v-9.1871418c.0526573-4.4232092.7093242-7.648724,1.9514158-9.5856849,1.159492-1.8089315,2.965326-2.6886174,5.521784-2.6886174,2.1042251,0,3.611668.638082,4.6080258,1.9514158,1.065535,1.4041934,1.7025845,3.4299489,1.8935961,6.0204792l.0722747.9798379h7.1944262l-.0557547-1.1099323c-.2354089-4.671008-1.5425477-8.3373983-3.8863117-10.8990187-2.3829988-2.6008553-5.6983407-3.9203841-9.8531011-3.9203841-4.8733771,0-8.599652,1.7366568-11.0745429,5.1614432-2.3995187,3.3174069-3.615798,8.3043584-3.615798,14.8214678v8.8691333c.0578197,6.1134037,1.4217458,10.9382535,4.0535759,14.3434225,2.6999748,3.4888011,6.4561921,5.2574653,11.1654025,5.2574653,5.2657252,0,9.3358211-1.816159,12.1204605-5.4267945l1.0913474-1.5157029v-18.2483191h-14.6325212v6.9776022Z"/>
      </g>
    </g>
  </g>
</svg>