<svg xmlns="http://www.w3.org/2000/svg" width="215.989" height="28.307" viewBox="0 0 215.989 28.307">
  <g id="RB_Logo_Wit_SVG" transform="translate(0 -0.025)">
    <g id="Group_16" data-name="Group 16" transform="translate(0 0.025)">
      <path id="Path_16" data-name="Path 16" d="M24.691,21.042V7.285c0-.118-.118-.353-.235-.353L12.581.113a.358.358,0,0,0-.47,0L4.468,4.464c-.235.118-.235.235-.235.47v6.232c0,.118.118.353.235.353L14.58,17.4V13.752c0-.118-.118-.353-.235-.353L5.056,7.991l7.172-4.115h.118l8.818,5.173V19.4h0l-8.818,5.056h-.118L3.41,19.278V11.871L.235,13.752C.118,13.87,0,13.987,0,14.1v6.819c0,.118.118.353.235.353L12.11,28.214a.358.358,0,0,0,.47,0l11.875-6.819C24.574,21.395,24.691,21.159,24.691,21.042Z" transform="translate(0 -0.025)" fill="#53b260"/>
    </g>
    <g id="Group_17" data-name="Group 17" transform="translate(37.154 7.05)">
      <path id="Path_17" data-name="Path 17" d="M31.6,6h3.292V8.116A3.768,3.768,0,0,1,38.655,6a5.605,5.605,0,0,1,2.587.588L39.948,9.762a3.113,3.113,0,0,0-2-.588c-1.881,0-2.939,1.058-2.939,3.527v7.76H31.718V6Z" transform="translate(-31.6 -6)" fill="#fff"/>
    </g>
    <g id="Group_18" data-name="Group 18" transform="translate(46.913 6.697)">
      <path id="Path_18" data-name="Path 18" d="M39.9,13.342A7.528,7.528,0,0,1,47.425,5.7a7.289,7.289,0,0,1,7.525,7.525v1.293H43.192a4.364,4.364,0,0,0,4.468,3.41,4.29,4.29,0,0,0,4-2.587l2.7,1.646a7.318,7.318,0,0,1-6.819,3.88A7.318,7.318,0,0,1,39.9,13.342ZM43.192,11.7h8.23a3.89,3.89,0,0,0-4.115-2.939A4.163,4.163,0,0,0,43.192,11.7Z" transform="translate(-39.9 -5.7)" fill="#fff"/>
    </g>
    <g id="Group_19" data-name="Group 19" transform="translate(62.198 1.289)">
      <path id="Path_19" data-name="Path 19" d="M52.9,6.861h2.469c0-4.115,1.646-5.761,6.114-5.761h.353V4.157c-2.7,0-2.939.588-2.939,2.7h2.939V9.918H58.9V21.441H55.369V9.8H52.9Z" transform="translate(-52.9 -1.1)" fill="#fff"/>
    </g>
    <g id="Group_20" data-name="Group 20" transform="translate(72.427 7.05)">
      <path id="Path_20" data-name="Path 20" d="M74.533,20.462H71.241V18.816a5.182,5.182,0,0,1-4.115,2c-3.41,0-5.526-2.352-5.526-6.232V6h3.41v8.23c0,2.234.941,3.645,3.057,3.645,1.881,0,3.175-1.411,3.175-4V6h3.292S74.533,20.462,74.533,20.462Z" transform="translate(-61.6 -6)" fill="#fff"/>
    </g>
    <g id="Group_21" data-name="Group 21" transform="translate(87.477 7.05)">
      <path id="Path_21" data-name="Path 21" d="M74.4,6h3.292V8.116A3.768,3.768,0,0,1,81.455,6a5.605,5.605,0,0,1,2.587.588L82.748,9.762a3.113,3.113,0,0,0-2-.588c-1.881,0-2.939,1.058-2.939,3.527v7.76H74.518L74.4,6Z" transform="translate(-74.4 -6)" fill="#fff"/>
    </g>
    <g id="Group_22" data-name="Group 22" transform="translate(98.177 3.17)">
      <path id="Path_22" data-name="Path 22" d="M86.792,19.161v1.881H83.5V2.7h3.292V8.344a5.946,5.946,0,0,1,4.7-2.116,7.137,7.137,0,0,1,7.172,7.525,7.259,7.259,0,0,1-7.055,7.525A5.525,5.525,0,0,1,86.792,19.161Zm8.583-5.409a4.352,4.352,0,1,0-8.7,0,4.367,4.367,0,0,0,4.35,4.468A4.23,4.23,0,0,0,95.375,13.752Z" transform="translate(-83.5 -2.7)" fill="#fff"/>
    </g>
    <g id="Group_23" data-name="Group 23" transform="translate(114.391 17.867)">
      <path id="Path_23" data-name="Path 23" d="M99.3,15.2a1.852,1.852,0,0,1,2,2,1.914,1.914,0,0,1-2,2,1.852,1.852,0,0,1-2-2A1.8,1.8,0,0,1,99.3,15.2Z" transform="translate(-97.291 -15.2)" fill="#53b260"/>
    </g>
    <g id="Group_24" data-name="Group 24" transform="translate(122.515 3.17)">
      <path id="Path_24" data-name="Path 24" d="M107.492,19.161v1.881H104.2V2.7h3.292V8.344a5.946,5.946,0,0,1,4.7-2.116,7.137,7.137,0,0,1,7.172,7.525,7.259,7.259,0,0,1-7.055,7.525A5.525,5.525,0,0,1,107.492,19.161Zm8.583-5.409a4.352,4.352,0,1,0-8.7,0,4.367,4.367,0,0,0,4.35,4.468A4.3,4.3,0,0,0,116.075,13.752Z" transform="translate(-104.2 -2.7)" fill="#fff"/>
    </g>
    <g id="Group_25" data-name="Group 25" transform="translate(138.741 6.815)">
      <path id="Path_25" data-name="Path 25" d="M118,13.325A7.137,7.137,0,0,1,125.172,5.8a6.452,6.452,0,0,1,4.7,2V6.035h3.292V20.5h-3.41V18.616a6.221,6.221,0,0,1-4.7,2.234A7.259,7.259,0,0,1,118,13.325Zm11.993-.118a4.352,4.352,0,1,0-8.7,0,4.352,4.352,0,1,0,8.7,0Z" transform="translate(-118 -5.8)" fill="#fff"/>
    </g>
    <g id="Group_26" data-name="Group 26" transform="translate(155.319 2.465)">
      <path id="Path_26" data-name="Path 26" d="M132.1,6.685h2.469V4.452l3.41-2.352V6.568h2.939V9.625h-2.939v5.409c0,2.587.353,2.939,2.939,2.939v3.175h-.47c-4.468,0-5.879-1.411-5.879-6V9.625H132.1Z" transform="translate(-132.1 -2.1)" fill="#fff"/>
    </g>
    <g id="Group_27" data-name="Group 27" transform="translate(165.196 2.582)">
      <path id="Path_27" data-name="Path 27" d="M140.5,6.785h2.469V4.552l3.41-2.352V6.668h2.939V9.725h-2.939v5.409c0,2.587.353,2.939,2.939,2.939v3.175h-.47c-4.468,0-5.879-1.411-5.879-6V9.725H140.5Z" transform="translate(-140.5 -2.2)" fill="#fff"/>
    </g>
    <g id="Group_28" data-name="Group 28" transform="translate(174.602 6.815)">
      <path id="Path_28" data-name="Path 28" d="M148.5,13.442A7.528,7.528,0,0,1,156.025,5.8a7.289,7.289,0,0,1,7.525,7.525v1.293H151.792a4.364,4.364,0,0,0,4.468,3.41,4.29,4.29,0,0,0,4-2.587l2.7,1.646A7.75,7.75,0,0,1,148.5,13.442Zm3.41-1.646h8.23a3.89,3.89,0,0,0-4.115-2.939A4.067,4.067,0,0,0,151.91,11.8Z" transform="translate(-148.5 -5.8)" fill="#fff"/>
    </g>
    <g id="Group_29" data-name="Group 29" transform="translate(191.18 7.168)">
      <path id="Path_29" data-name="Path 29" d="M162.6,6.1h3.292V8.216A3.768,3.768,0,0,1,169.655,6.1a5.6,5.6,0,0,1,2.587.588l-1.293,3.175a3.113,3.113,0,0,0-2-.588c-1.881,0-2.939,1.058-2.939,3.527v7.76h-3.292L162.6,6.1Z" transform="translate(-162.6 -6.1)" fill="#fff"/>
    </g>
    <g id="Group_30" data-name="Group 30" transform="translate(201.174 7.168)">
      <path id="Path_30" data-name="Path 30" d="M177.1,19.856,171.1,6.1h3.527l4,9.759L182.387,6.1h3.527l-8.7,21.164H173.8Z" transform="translate(-171.1 -6.1)" fill="#fff"/>
    </g>
  </g>
</svg>
