<?xml version="1.0" encoding="UTF-8"?>
<svg xmlns="http://www.w3.org/2000/svg" version="1.1" xmlns:xlink="http://www.w3.org/1999/xlink" viewBox="0 0 100 100">
  <defs>
    <style>
      .cls-1 {
        fill: none;
      }

      .cls-2 {
        fill: #c51919;
      }

      .cls-3 {
        fill: #c61919;
      }

      .cls-4 {
        clip-path: url(#clippath);
      }

      .cls-5 {
        fill: #c41919;
      }
    </style>
    <clipPath id="clippath">
      <rect class="cls-1" x="1.0135543" y="30.7901882" width="96.4947514" height="38.6965861"/>
    </clipPath>
  </defs>
  <!-- Generator: Adobe Illustrator 28.7.1, SVG Export Plug-In . SVG Version: 1.2.0 Build 142)  -->
  <g>
    <g id="Laag_1">
      <g class="cls-4">
        <g id="Group_141">
          <path id="Path_370" class="cls-3" d="M49.7631434,33.256696c2.5184831,0,4.8958883-.0135006,7.2712645.0283505.1741509,0,.4725085.4009589.4887103.631814.0614287.810018.0249773,1.6267862.0249773,2.440854v15.922255c-.0053972,7.508868-4.6333024,12.4877788-12.1239447,13.1006931-2.9815157.3439682-6.0004407-.1297068-8.7333474-1.3702798-4.4294465-2.1411484-6.632021-5.8213303-6.7339489-10.6294634-.1390488-6.5408951-.03915-13.0865166-.0384805-19.6301128.0121333-.1416547.0335571-.2823599.0641273-.4212091h7.6830241v1.0617987c0,5.8199804-.0141727,11.6399589.0148525,17.4599399-.0031209.9025067.1103224,1.8016375.3375075,2.6750856.7776125,2.8566627,2.9869437,4.28567,6.1946146,4.1040903,2.7507461-.0072434,5.0615109-2.0703777,5.3791911-4.8027308.1111155-.745209.1659522-1.4977283.1640261-2.2511746.0130603-5.6993768.0155323-11.3987549.0074262-17.0981317v-1.2150273"/>
          <path id="Path_371" class="cls-5" d="M17.8457306,64.5881874h-7.7869747v-1.2764527c-.0000006-7.4508177-.0000006-14.9018568,0-22.3531252,0-1.238652-.0033752-1.2413532-1.2298778-1.2420278H2.0416014c-.3246822,0-.6493645-.0290252-1.0253479-.0465762v-6.3451414h25.8929032v6.3883431h-1.6315113c-2.141823,0-4.2843207.0330756-6.4247932-.0162005-.8025924-.0182257-1.0246726.2430058-1.0219728,1.0307483.0256506,7.541269.0148499,15.0832125.0148499,22.6244789v1.2352788"/>
          <path id="Path_372" class="cls-2" d="M79.5063245,55.7211832c.6877664,2.3911504,2.7026971,4.1644503,5.1618424,4.5428537,2.1755475.3886724,4.4099488-.2305069,6.0751356-1.6834898.2110864-.185795.4934894-.2688071.7715458-.2268041,1.626109.6210126,3.2299496,1.2980516,4.9188262,1.9899431-.2085732.2983576-.3449235.5271856-.5136772.7296922-3.8475941,4.6103542-13.0500716,6.6934497-18.7046618.7175434-4.4588527-4.716433-4.2500323-12.1544685.4664006-16.6133109s12.1544736-4.250022,16.6133264.4664109c2.3701129,2.5070451,3.5188827,5.9289181,3.1416999,9.358274-.0769609.6959393-.4137887.7310414-.9497549.7303668-5.2763568-.0121539-10.5527136-.0159803-15.829091-.0114793h-1.1475339M79.7095212,51.1263561h12.0463245c-.5811829-2.1397965-3.1287014-3.956938-5.6181491-4.0629138-2.7941809-.1716789-5.3842587,1.4653789-6.4281754,4.0629138"/>
          <path id="Path_373" class="cls-2" d="M56.7407574,69.4685512c.1788889-.4893849.2787774-.7958433.4002752-1.0935237,4.9847663-12.2231715,9.9652478-24.4479214,14.9414652-36.6742446.1587011-.6184033.7631205-1.0134502,1.393228-.9105947,1.4735673.0573763,2.9504924.0168754,4.5556719.0168754-.1019279.3375075-.1552609.5865881-.2497523.8181183-5.040118,12.3626757-10.0802154,24.7260264-15.1203334,37.0900517-.1218274.5087668-.6096724.8421801-1.1279434.7708686-1.5336364-.0452269-3.0692915-.0148499-4.7966487-.0148499"/>
        </g>
      </g>
    </g>
  </g>
</svg>